<?xml version="1.0" encoding="UTF-8" ?>
<!DOCTYPE svg PUBLIC "-//W3C//DTD SVG 1.1//EN" "http://www.w3.org/Graphics/SVG/1.1/DTD/svg11.dtd">
<svg width="801pt" height="801pt" viewBox="0 0 801 801" version="1.1" xmlns="http://www.w3.org/2000/svg">
<g id="#11172fff">
<path fill="#11172f" opacity="1.00" d=" M 210.81 0.00 L 617.41 0.00 C 632.04 0.57 646.83 0.84 661.21 3.97 C 694.69 10.72 726.01 27.71 749.95 52.06 C 775.44 77.48 792.50 111.12 798.26 146.63 C 799.63 154.56 799.94 162.61 801.00 170.57 L 801.00 630.12 C 799.99 638.18 799.64 646.31 798.27 654.32 C 792.70 688.69 776.50 721.28 752.37 746.41 C 731.09 768.86 703.67 785.42 673.92 793.88 C 658.35 798.57 642.09 799.93 625.95 801.00 L 173.18 801.00 C 155.52 799.80 137.77 797.73 120.94 791.99 C 89.93 781.96 61.93 762.99 41.04 737.98 C 17.26 709.59 2.69 673.43 0.82 636.39 C 0.33 630.42 0.95 624.40 0.00 618.49 L 0.00 185.63 C 0.93 175.36 0.29 164.99 1.65 154.74 C 6.65 108.90 30.98 65.59 67.49 37.42 C 97.66 13.95 135.66 0.03 174.05 0.68 C 186.30 0.43 198.59 0.94 210.81 0.00 M 212.16 212.11 C 193.24 230.69 181.69 256.47 180.01 282.90 C 179.69 301.59 179.94 320.29 179.86 338.98 C 179.90 433.09 179.72 527.19 179.95 621.30 C 200.47 621.07 220.93 615.28 238.34 604.37 C 270.08 584.88 290.45 548.30 290.10 511.03 C 290.07 400.56 290.21 290.08 290.03 179.61 C 261.21 179.91 232.37 191.40 212.16 212.11 M 604.04 181.08 C 572.36 185.93 543.31 205.35 526.83 232.84 C 516.50 249.98 510.78 269.93 510.83 289.96 C 510.82 400.42 510.76 510.88 510.86 621.34 C 529.23 620.88 547.70 616.68 563.81 607.64 C 594.90 590.85 616.95 558.26 620.49 523.04 C 621.58 512.07 621.02 501.02 621.13 490.01 C 621.14 386.57 621.10 283.12 621.16 179.68 C 615.43 179.93 609.70 180.09 604.04 181.08 M 397.30 345.35 C 381.47 345.91 366.49 354.43 356.83 366.80 C 349.56 375.87 345.79 387.41 345.18 398.94 C 344.72 416.82 353.73 434.40 367.99 445.06 C 377.34 452.25 389.27 455.49 400.99 455.02 C 412.90 455.47 424.82 451.62 434.15 444.18 C 446.81 434.37 454.97 418.90 455.65 402.87 C 456.43 386.47 449.42 369.79 436.86 359.15 C 426.32 349.32 411.59 344.55 397.30 345.35 Z" />
</g>
<g id="#ffffffff">
<path fill="#ffffff" opacity="1.00" d=" M 212.16 212.11 C 232.37 191.40 261.21 179.91 290.03 179.61 C 290.21 290.08 290.07 400.56 290.10 511.03 C 290.45 548.30 270.08 584.88 238.34 604.37 C 220.93 615.28 200.47 621.07 179.95 621.30 C 179.72 527.19 179.90 433.09 179.86 338.98 C 179.94 320.29 179.69 301.59 180.01 282.90 C 181.69 256.47 193.24 230.69 212.16 212.11 Z" />
<path fill="#ffffff" opacity="1.00" d=" M 604.04 181.08 C 609.70 180.09 615.43 179.93 621.16 179.68 C 621.10 283.12 621.14 386.57 621.13 490.01 C 621.02 501.02 621.58 512.07 620.49 523.04 C 616.95 558.26 594.90 590.85 563.81 607.64 C 547.70 616.68 529.23 620.88 510.86 621.34 C 510.76 510.88 510.82 400.42 510.83 289.96 C 510.78 269.93 516.50 249.98 526.83 232.84 C 543.31 205.35 572.36 185.93 604.04 181.08 Z" />
</g>
<g id="#01b3fcff">
<path fill="#01b3fc" opacity="1.00" d=" M 397.30 345.35 C 411.59 344.55 426.32 349.32 436.86 359.15 C 449.42 369.79 456.43 386.47 455.65 402.87 C 454.97 418.90 446.81 434.37 434.15 444.18 C 424.82 451.62 412.90 455.47 400.99 455.02 C 389.27 455.49 377.34 452.25 367.99 445.06 C 353.73 434.40 344.72 416.82 345.18 398.94 C 345.79 387.41 349.56 375.87 356.83 366.80 C 366.49 354.43 381.47 345.91 397.30 345.35 Z" />
</g>
</svg>
