<?xml version="1.0" encoding="utf-8"?>
<!-- Generator: Adobe Illustrator 24.0.1, SVG Export Plug-In . SVG Version: 6.00 Build 0)  -->
<svg version="1.1" id="Capa_1" xmlns="http://www.w3.org/2000/svg" xmlns:xlink="http://www.w3.org/1999/xlink" x="0px" y="0px"
	 viewBox="0 0 460 460" style="enable-background:new 0 0 460 460;" xml:space="preserve">
<style type="text/css">
	.st0{fill:#BFBFBF;}
	.st1{fill:#A3A3A3;}
	.st2{fill:#3EC3FF;}
	.st3{fill:#FF3187;}
	.st4{fill:#606060;}
	.st5{fill:#404040;}
	.st6{fill:#8F8F8F;}
	.st7{fill:#CB2E81;}
</style>
<g id="XMLID_23_">
	<polygon id="XMLID_24_" class="st0" points="145,340 70,340 63.3,370 145,370 	"/>
	<polygon id="XMLID_25_" class="st0" points="145,400 56.7,400 50,430 145,430 	"/>
	<polygon id="XMLID_26_" class="st1" points="145,430 240,430 233.3,400 145,400 	"/>
	<polygon id="XMLID_27_" class="st1" points="145,370 226.7,370 220,340 145,340 	"/>
	<path id="XMLID_28_" class="st2" d="M145,280c-24.9,0-45-20.1-45-45v-60c-18.2,13.7-30,35.5-30,60c0,41.4,0,75,0,75h75V280z"/>
	<path id="XMLID_29_" class="st3" d="M145,280v30h75c0,0,0-33.6,0-75c0-24.5-11.8-46.3-30-60v60C190,259.9,169.9,280,145,280z"/>
	<rect id="XMLID_30_" x="30" y="430" class="st4" width="115" height="30"/>
	<rect id="XMLID_31_" x="145" y="430" class="st5" width="115" height="30"/>
	<rect id="XMLID_71_" x="50" y="370" class="st6" width="95" height="30"/>
	<rect id="XMLID_85_" x="145" y="370" class="st4" width="95" height="30"/>
	<rect id="XMLID_86_" x="70" y="310" class="st6" width="75" height="30"/>
	<rect id="XMLID_87_" x="145" y="310" class="st4" width="75" height="30"/>
	<path id="XMLID_88_" class="st5" d="M354,30H187.4c1.7,4.7,2.6,9.7,2.6,15v15h164c-2.6-4.4-4-9.5-4-15S351.5,34.4,354,30z"/>
	<path id="XMLID_89_" class="st3" d="M145,280v-30c-8.3,0-15-6.7-15-15s6.7-15,15-15V60c-8.3,0-15-6.7-15-15s6.7-15,15-15V0
		c-24.9,0-45,20.1-45,45v190C100,259.9,120.1,280,145,280z"/>
	<path id="XMLID_90_" class="st7" d="M187.4,30C181.3,12.5,164.6,0,145,0v30c8.3,0,15,6.7,15,15s-6.7,15-15,15v160
		c8.3,0,15,6.7,15,15s-6.7,15-15,15v30c24.9,0,45-20.1,45-45V45C190,39.7,189.1,34.7,187.4,30z"/>
	<circle id="XMLID_91_" class="st5" cx="145" cy="235" r="15"/>
	<circle id="XMLID_92_" class="st5" cx="145" cy="45" r="15"/>
	<path id="XMLID_93_" class="st4" d="M380,105c-5.2,0-10.3,0.8-15,2.3c-20.3,6.4-35,25.3-35,47.7v55h30v-55h20V105z"/>
	<path id="XMLID_102_" class="st5" d="M395,107.3V71c-4.4,2.6-9.5,4-15,4s-10.6-1.5-15-4v36.3c4.7-1.5,9.8-2.3,15-2.3v50h20v55h30
		v-55C430,132.6,415.3,113.7,395,107.3z"/>
	<path id="XMLID_103_" class="st2" d="M395,71c9-5.2,15-14.9,15-26c0-16.6-13.4-30-30-30c-11.1,0-20.8,6-26,15c-2.6,4.4-4,9.5-4,15
		s1.5,10.6,4,15c2.6,4.6,6.4,8.3,11,11c4.4,2.6,9.5,4,15,4S390.6,73.5,395,71z"/>
</g>
</svg>
