<?xml version="1.0" encoding="UTF-8" ?>
<!DOCTYPE svg PUBLIC "-//W3C//DTD SVG 1.1//EN" "http://www.w3.org/Graphics/SVG/1.1/DTD/svg11.dtd">
<svg width="801pt" height="801pt" viewBox="0 0 801 801" version="1.1" xmlns="http://www.w3.org/2000/svg">
<g id="#ffffffff">
<path fill="#ffffff" opacity="1.00" d=" M 211.66 212.62 C 231.91 191.61 260.96 179.90 290.01 179.62 C 290.23 285.75 290.06 391.87 290.10 498.00 C 290.04 508.64 290.58 519.37 288.50 529.87 C 282.92 562.50 261.84 592.10 232.60 607.70 C 216.51 616.46 198.23 621.19 179.90 621.20 C 179.79 510.80 179.87 400.40 179.87 289.99 C 179.60 261.36 191.40 232.82 211.66 212.62 Z" />
<path fill="#ffffff" opacity="1.00" d=" M 526.82 232.86 C 545.33 201.88 579.91 181.25 615.99 179.92 C 617.70 179.86 619.41 179.77 621.13 179.70 C 621.13 289.79 621.13 399.88 621.12 509.97 C 621.82 543.79 605.40 577.15 578.74 597.82 C 559.60 613.01 535.25 621.02 510.90 621.28 C 510.71 511.19 510.86 401.10 510.82 291.02 C 510.61 270.64 516.30 250.29 526.82 232.86 Z" />
</g>
<g id="#11172fff">
<path fill="#11172f" opacity="1.00" d=" M 225.62 0.00 L 614.00 0.00 C 628.95 0.59 644.06 0.49 658.80 3.50 C 693.41 9.95 725.88 27.36 750.45 52.57 C 774.03 76.29 790.33 107.07 797.01 139.83 C 799.25 150.11 799.84 160.64 801.00 171.08 L 801.00 629.16 C 799.78 643.65 798.42 658.22 794.36 672.24 C 786.22 701.97 770.05 729.48 747.90 750.94 C 722.97 775.37 690.52 792.06 656.09 797.93 C 645.81 799.78 635.35 800.23 624.95 801.00 L 172.80 801.00 C 157.64 799.80 142.39 798.40 127.75 794.05 C 96.81 785.41 68.39 768.01 46.66 744.35 C 21.28 716.97 5.05 681.21 1.37 644.04 C 0.19 632.38 0.55 620.66 0.50 608.96 C 0.50 464.64 0.51 320.31 0.49 175.99 C 0.38 152.22 4.99 128.41 14.33 106.54 C 26.74 77.29 47.30 51.58 73.19 33.17 C 102.33 12.29 138.02 0.08 174.01 0.68 C 191.21 0.38 208.43 0.99 225.62 0.00 M 211.66 212.62 C 191.40 232.82 179.60 261.36 179.87 289.99 C 179.87 400.40 179.79 510.80 179.90 621.20 C 198.23 621.19 216.51 616.46 232.60 607.70 C 261.84 592.10 282.92 562.50 288.50 529.87 C 290.58 519.37 290.04 508.64 290.10 498.00 C 290.06 391.87 290.23 285.75 290.01 179.62 C 260.96 179.90 231.91 191.61 211.66 212.62 M 526.82 232.86 C 516.30 250.29 510.61 270.64 510.82 291.02 C 510.86 401.10 510.71 511.19 510.90 621.28 C 535.25 621.02 559.60 613.01 578.74 597.82 C 605.40 577.15 621.82 543.79 621.12 509.97 C 621.13 399.88 621.13 289.79 621.13 179.70 C 619.41 179.77 617.70 179.86 615.99 179.92 C 579.91 181.25 545.33 201.88 526.82 232.86 Z" />
</g>
</svg>
