<?xml version="1.0" encoding="utf-8"?>
<!-- Generator: Adobe Illustrator 24.0.1, SVG Export Plug-In . SVG Version: 6.00 Build 0)  -->
<svg version="1.1" id="Capa_1" xmlns="http://www.w3.org/2000/svg" xmlns:xlink="http://www.w3.org/1999/xlink" x="0px" y="0px"
	 viewBox="0 0 512 512" style="enable-background:new 0 0 512 512;" xml:space="preserve">
<style type="text/css">
	.st0{fill:#9ABADB;}
	.st1{fill:#D1E8FF;}
	.st2{fill:#F5F5FF;}
	.st3{fill:#FF3187;}
	.st4{fill:#3EC3FF;}
</style>
<polygon class="st0" points="332.7,473.6 332.7,413.6 236,393.6 256,473.6 "/>
<g>
	<polygon class="st1" points="179.3,473.6 256,473.6 256,393.6 179.3,413.6 	"/>
	<polygon class="st1" points="512,323.5 236,303.5 256,413.6 512,413.6 	"/>
</g>
<polygon class="st2" points="0,323.5 0,413.6 256,413.6 256,303.5 "/>
<polygon class="st1" points="377.7,458.6 256,458.6 246,473.6 256,488.6 377.7,488.6 "/>
<rect x="134.3" y="458.6" class="st2" width="121.7" height="30"/>
<polygon class="st3" points="512,23.4 256,23.4 236,173.4 256,323.5 512,323.5 "/>
<rect y="23.4" class="st4" width="256" height="300.2"/>
<polygon class="st2" points="178.8,252.9 99.4,173.4 178.8,94 200,115.2 141.8,173.4 200,231.7 "/>
<g>
	<polygon class="st1" points="333.2,252.9 312,231.7 370.2,173.4 312,115.2 333.2,94 412.6,173.4 	"/>
	
		<rect x="161.2" y="158.4" transform="matrix(0.1951 -0.9808 0.9808 0.1951 35.9432 390.6833)" class="st1" width="189.6" height="30"/>
</g>
</svg>
