<?xml version="1.0" encoding="utf-8"?>
<svg id="master-artboard" viewBox="0 0 1400 980" version="1.1" xmlns="http://www.w3.org/2000/svg" x="0px" y="0px" style="enable-background:new 0 0 1400 980;" width="1400px" height="980px">


















<path d="M1018.1,439.5c-4.2,0-7.9,0.3-11,0.9c-3.1,0.6-5.6,1.6-7.5,3.1c-1.9,1.5-3.4,2.9-4.6,4.4c-1.1,1.5-1.9,3.7-2.5,6.5&#10;&#9;&#9;c-0.5,2.8-0.8,5.3-0.9,7.4c-0.1,2.1-0.1,5.1-0.1,9.1h26.6v51.5h-71.7c-2.2-14.4-3.4-27.4-3.4-39c0-26.1,6.1-45.2,18.3-57.3&#10;&#9;&#9;c12.2-12.1,31.1-18.2,56.8-18.2V439.5z M1106.8,439.5c-4.2,0-7.9,0.3-11,0.9c-3.1,0.6-5.6,1.6-7.5,3.1c-1.9,1.5-3.4,2.9-4.6,4.4&#10;&#9;&#9;c-1.1,1.5-1.9,3.7-2.5,6.5c-0.5,2.8-0.8,5.3-0.9,7.4c-0.1,2.1-0.1,5.1-0.1,9.1h26.6v51.5h-71.7c-2.2-14.4-3.4-27.4-3.4-39&#10;&#9;&#9;c0-26.1,6.1-45.2,18.3-57.3c12.2-12.1,31.1-18.2,56.8-18.2V439.5z" transform="matrix(8.385642051696777, 0, 0, 8.385642051696777, -7897.40087890625, -3411.2109375)" style="stroke: rgb(255, 255, 255); stroke-width: 0; fill: rgb(255, 255, 255);"/></svg>