<svg xmlns="http://www.w3.org/2000/svg" version="1.1" viewBox="0 0 1600 407"><path transform="translate(0)" d="m0 0h1600v407h-1600z" fill="#FCFAFA"></path><path transform="translate(448,39)" d="m0 0h1049l1 180-1 7-3 1h-1060l-4-1v-167l1-18 1-1z" fill="#E93435"></path><path transform="translate(41,39)" d="m0 0h161l44 1 5 14 6 11 8 14 10 14 8 14 3 9v8l-4 10-11 12-13 9-23 13-16 8-17 11-10 6-5-1-12-12 5-5 8-9 4-9 1-4 3 1 3 3 5 4 10 2 5-1-2-4-5-6-6-3-8-1-2-2 1-5 4-4 3-1v-6h-6l1-27 1-4 12-3 7-5 2-3v-4h-10l-7 4-4 4-4-1v-2h-2l-1 12-4 5-5 2-4 9 2-4h1v6l2-1 3-10 1 4 3-1v21l-2 6-3-3-1-9-2-1 2-4-2 1-2 10-3 1-2 9 5-3 4-2 2 5-1 9-4 9-4 6-9 7-4-2-7-9-3-6v-3l8-5 2-3v-10l-4 2-4 4-3 6-3-3-1-3v-9l4-18 6-16 1-5-1-13-5 15-9 20-2 1-11-7-7-8 2-4 1-1v-10l-4 2v-3l-5 9-4-4-5-6-3-5-2 3-1 2-9 1-2 1-1 4h-2v2l11 1v6l-2 1-2-1 1 3 4-1 1 2 3-5 3-3v3h2v-2l3 1 5 8 8 9 8 6 7 4-1 5v16l5 16 7 12 12 13 10 9 6 4-1 3h-2l-2 4-10 11-4 5-9-16-8-7-14-8v-4h15l-2-4-10-2 1-8 4-2-1-3-5 1-4 6h-2l-7-11-5-4 1-3 10-5h3l-1-7-15 1 3-8v-6l-5 1-4 2-2 5-2 7-3 2h-7l-4-4-2-5-2-2-1-4h-3l-2-5-2-1v5l-2 1-1-2v5h2l3 9 2 4h2v2h21l-4 4 10 2 1 5-9 2v3l-2 3 18 1 3 4 4 13v3l-17 1h-19l1-5 2-3h-1l-2-7-2-1-1 5-3 3-4-6v-4h-6l-1 3v11l1 3-7-1-7-7-5-4-1-5 3-3v-8l-5-3-3 9-1 2-10 1v8h14l4 6 9 7v2l-5 5-4 6 8-4 5-4h2v-2h48l-1 2 16 3 3 3-4 6-11 10-10 5-6 2h-8l-1-1-1-16-1-3-5 1v12l1 7h-16l-3 1v2l-5 1v2h-2v2l3 1-5 1 1 2 6 1 8-2-4-2 8-1 1-4 8-1 3 3h15l-13-1 4-2 18-1 11-7 10-8 4-4 4 2 6 9 3 7-1 10-4 19v14l4 26 5 13v6l-128-1v-273l1-3z" fill="#8B2726"></path><path transform="translate(255,38)" d="m0 0h15l15 1 19 5 12 6v2l5 2 10 9v2h2v2h2l7 10 9 20 3 12 1 3v134l-3 8-2 10-3 6-3 8-4 6-12 13-11 9-18 11-10 4-6 1h-11l-17-1-1 6-1-3h-2l-1 3-1 5h-2l-1-5h-3v8h-11v-8l7-5-1-1-32-1v-1l-11-1-4-10-4-13v-7l9-11 9-10 8-7 12-8 9-3 5-2 7-1h19l10 1 5 5 1 6 3-1 3 6 3 2h3l2-2v-3-3l-3-1 1-4 13-2v-2l-2-1 1-5-13-1-8 1-6-2 4-4h3l2-9h-2l1-4h-4l-1 3h-5l-2 7h-2v3h-2l-1 2-26-1-2-4 1-5-3-1-4-6-5-4-4 1-1 6 2 7 4 2 5 7-11 2h-2v2l-15 8-13 12-12 12-1-10 1-22 4-17 9-15 13-15 13-10 5-3h2v-2h3v-2l11-6 5-2h33l4 2 1 6 8 4 10 1 1-6-2-1v-2h-2v-2l-4-2-1-3 10-4v-1l-13 1-6 2h-6l-8-3-10-3 2-1v-2l6-3 13-13 7-11 4-11 2-10h2l3 3h8l5-1v-2l-4-2-4-4-4-3 4-6 3-1 3-5 3 1 1-5 4 3 9 1 5-2-1-6-6-2h-7l-5 1-2 4-4-2-1-3 1-3-7-2-1 3v15l-3 5-3 3-2 7-3-3-9-16-10-13-10-15-7-15z" fill="#F0883A"></path><path transform="translate(35,175)" d="m0 0 4 2v4h14l4 6 9 7v2l-5 5-4 6 8-4 5-4h2v-2h48l-1 2 16 3 3 3-4 6-11 10-10 5-6 2h-8l-1-1-1-16-1-3-5 1v12l1 7h-16l-3 1v2l-5 1v2h-2v2l3 1-5 1 1 2 6 1 8-2-4-2 8-1 1-4 8-1 3 3h15l-13-1 4-2 18-1 11-7 10-8 4-4 4 2 6 9 3 7-1 10-4 19v14l4 26 5 13v6l-127-1v-140z" fill="#892726"></path><path transform="translate(434,44)" d="m0 0 111 1v1l-34 1h-71l-2-1 2 62v26l-1 55-1 31 40-1h986l25-1 1-5v-10l-2-4-1-14v-98l2-20-43 1-3-2 3-1 43-1 2-13-1-3-911-1v-1l19-1 895-1v183h-1059z" fill="#E64646"></path><path transform="translate(444,73)" d="m0 0h41l10 3 8 4 10 8 7 8 5 8 5 12 1 6v19l-4 18-7 14-9 11-11 7-2 1-52 1-2-1v-20h6v-76h-2v-2h-5v-20z" fill="#FCF9F8"></path><path transform="translate(375,39)" d="m0 0h36l7 1v1l-32 1 33 1 1 100v84h-45z" fill="#E93435"></path><path transform="translate(860,73)" d="m0 0h29v22l-1 1h-8v97h-22l-3-1-2-5h-3l-2-5v-3h-2l-3-6v-2h-2l-1-5h-2l-10-19-7-11-9-17-2-1v75h-30v-21h6v-98h24l6 12 3 1 4 8 11 18 10 17 8 12 5 6v-7l-1-1v-66z" fill="#FDF8F8"></path><path transform="translate(1335,73)" d="m0 0h67l5 2 7 6 8 10 2 10v16l-4 10-4 6h-2l-1 3-4 3 2 6 6 11 5 8 2 7 9 2v20h-24l-1-1v-5h-2l-13-26-6-13-3-1v-3h-19v47l-1 2h-20v-97l-9-1z" fill="#FCF9F8"></path><path transform="translate(1513,39)" d="m0 0h25l9 1 1 3v183l-19 1h-22v-187z" fill="#E93334"></path><path transform="translate(1117,73)" d="m0 0h20l6 10 8 12 12 19 14 24 2 4 2 1 2 6h3v-75h29v18l-1 1-7 1-2 98h-23l-3-9-3 1-1-7h-2l-4-6v-2h-2l-18-33-7-11-2-5-3-1v73l-1 1h-29v-20l4-1 1-15 1-83z" fill="#FCF9F8"></path><path transform="translate(543,73)" d="m0 0h30v50h49v-49l1-1h33v24l-9 1-1 95h-24v-46h-45v-1l9-1h35l1-1h-49v49h-21l-2-2 1-11v-82l-7-2-1-2z" fill="#FDFAF9"></path><path transform="translate(448,39)" d="m0 0h1049l1 180-1 7-4 1v-183h-1059v182h-4v-167l1-18 1-1z" fill="#F78285"></path><path transform="translate(1345,252)" d="m0 0h34l31 1 9 3 3 3 9 6 6 8v17l-6 8-8 5-2 3 1 4 9 11 4 7v2l9 2v18h-18l-5-3-10-15-11-16-2-4-23-1v38l-1 1h-20v-79h-9z" fill="#252424"></path><path transform="translate(1033,73)" d="m0 0h23l7 23 3 7 6 21 12 36 3 10 9 2v21h-24l-4-1-4-16-2-14h-34l-7 20-3 11h-25v-20l4-2h3l3-10 21-65 4-15 3-7z" fill="#FCF7F7"></path><path transform="translate(703,73)" d="m0 0h27l5 22 3 3 2 7 1 10 9 25 5 15 3 8 1 9h7v21h-25l-4-18v-3h-2l-3-9-33-1-3 11-5 19-8 1h-17v-20l6-2h2l1-8 3-11 2-6 5-19 6-16z" fill="#FCF9F8"></path><path transform="translate(384,252)" d="m0 0h23l7 1v39h51v-40h31l2 1v18h-9v79h-21l-1-38v35h-2v-36h-51v39h-24v-2l3-1h-3v-76h-6z" fill="#252424"></path><path transform="translate(929,252)" d="m0 0h25l3 1 1 38 50 1v-40h31l2 2-3 2v15l-5 1-1 78h-24v-39h-54v39h-20v-79h-9v-18z" fill="#252424"></path><path transform="translate(515,252)" d="m0 0h87v24h-20v-5h-2v5h-1v-5l-36 1v19l38 1v19h-39l1 19 38 1v-5h21v24h-84v-79h-5l-1-18z" fill="#252424"></path><path transform="translate(1458,252)" d="m0 0h90l3 2h-3v2l3-1v21h-23v-5h-40v21h39l1 18-1 1h-39v20h40v-5h23v23l-3 1h-80l-1-2v-77h-9z" fill="#252424"></path><path transform="translate(900,73)" d="m0 0h24l3 13 2-3 4 21 5 14 5 15 5 13v8l4-4 6-21 11-33 6-22 4-1h23v23l-1 1h-8l-3 12-7 19-6 20-12 36-2 8-5 1h-19l-2-4-2-1-3-11v-4h-2l-4-14-6-20-9-29-3-12-1-1-7-1-1-2v-20z" fill="#FCF7F6"></path><path transform="translate(656,252)" d="m0 0h17l8 1 5 12 2 7 2 3 12 28 6 13 4 12v3h9v19h-24l-7-16-3-7v-3l-36 1-5 10-5 15h-24l-1-4 1-15 8-1 2-9 25-60z" fill="#272626"></path><path transform="translate(1274,252)" d="m0 0h14l5 2 2 7 3 9 11 23 15 35 1 2 8 2v17l-2 1h-21l-5-5-8-21-1-1v1l-35 1-5 15-4 9-2 1h-20l-3-1v-17l8-2 10-26 13-30 7-18 2-3z" fill="#252424"></path><path transform="translate(434,44)" d="m0 0 111 1v1l-34 1h-71l-2-1 2 62v26l-1 55-1 31 40-1h986l25-1 1-5v-10l-2-4-1-14v-98l2-20-43 1-3-2 3-1 43-1 2-13-1-3-911-1v-1l19-1 895-1v182h-3v-4h-1055v-98l-1-31z" fill="#C12024"></path><path transform="translate(1227,73)" d="m0 0h97v30h-20l-3-1v-8h-16v98h-20v-98h-14l-1 9h-24v-11z" fill="#FCF9F9"></path><path transform="translate(1158,252)" d="m0 0h23l14 2 11 4 1 2-1 16h-21v-6l-24 1-13 2v2l-7 3-6 7-3 3-2 4-1 11 2 9 6 8 8 6 8 4 6 1v2h21l-3-2 16-1v-2h2v-2h10l6 9v2l3 1-5 4-13 5-12 3h-27l-17-5-16-8-9-8-6-9-4-11-1-4v-12l5-12 9-10 8-7 10-6 14-5z" fill="#282626"></path><path transform="translate(814,252)" d="m0 0h96l3 1v23h-24v-5h-15v79h-24v-79h-15v5h-21z" fill="#242323"></path><path transform="translate(735,252)" d="m0 0h28l2 1v78h40v-5h20v24h-84v-79h-5l-1-16z" fill="#252424"></path><path transform="translate(1444,73)" d="m0 0h39v20l-10 1v78h10v21h-38l-1-1v-19l1-1h8v-78l-9-1z" fill="#FCF9F8"></path><path transform="translate(161,313)" d="m0 0h1l-1 7-6 1h-19l-1 9 2 1 1 5v10l-4 1 3 1v2h-5l-2-2-3 2h-4v-13l-3-2-1 10-1 1h-5v-11h-10v10h-4l-1-6-25 1v6l-2 1-17-1-1 3-10 1h-9v-34h122l5 1z" fill="#F7EEEC"></path><path transform="translate(600,223)" d="m0 0h856l34 1v2h-982v-1l57-1z" fill="#E53132"></path><path transform="translate(441,44)" d="m0 0h1013v1l-859 1 895 1v1h-1052v-2h73l-70-1z" fill="#D62B2C"></path><path transform="translate(474,96)" d="m0 0h9l9 3 9 7 4 6 3 11v21l-3 11-9 10-8 5-6 2h-8z" fill="#E93435"></path><path transform="translate(434,93)" d="m0 0h1l1 43-1 86 3-1h152v1l10 1v1l-35 1 928 1v1h-1059z" fill="#E34D4D"></path><path transform="translate(1454,44)" d="m0 0h39l-1 4-913-1v-1l19-1z" fill="#A70F18"></path><path transform="translate(432,40)" d="m0 0h915v1l-456 1h-447l6 1v1h-16v182h-4v-167l1-18z" fill="#F35D5F"></path><path transform="translate(227,216)" d="m0 0 4 1 7 6 2 4 2 1v7l1 1 26 1 3-1v-3h2l1-5 1-2h5l1-4 4 1-1 4h2l-1 7-1 2-6 3 7 2 11-1 8 1 1 5v4l-13 3-1 3 4 1-1 5v3h-3l-3 1-5-6v-3l-4 2-1-7-1-3-13-2h-19l-11 2-7 3-8 4-13 10-7 6-4-2-4-1-6 5 2-4 15-15 10-7 8-4 4-4 3 1 7-2-6-7-3-3-2-5 1-6z" fill="#FBC2B2"></path><path transform="translate(255,38)" d="m0 0h15l15 1 19 5 12 6v2l5 2 10 9v2h2v2h2l7 10 9 20 3 12 1 3v134l-3 8-2 10-3 6-3 8-4 6-12 13-11 9-18 11-10 4-6 1h-11l-17-1-1 6-1-3h-2l-1 3-1 5h-2l-1-5h-3v8h-11v-8l7-5-1-1-32-1v-1l-11-1-1-2h46l48-1 9-3 10-3 7-4 11-8 11-14 7-8 3-10h2l1-9 3-24v-72l-1-38-2-23-11-22-9-10-3-3v-2l-4-2-13-8-14-6-4-1-26-1-10 1z" fill="#FCC3B3"></path><path transform="translate(41,39)" d="m0 0h161l44 1 1 7-1-3h-212v129l3-1 1-8 1-1 1-10h4l4 1v6l8-1h2l4 1v8l-3 3-1-7-5-3-3 9-1 2-10 1-2 3h-2l-1 140h-1v-273l1-3z" fill="#E96162"></path><path transform="translate(375,39)" d="m0 0h36l7 1v1l-32 1 33 1v1h-39v182h37v-144l1-37h1l1 98v84h-45z" fill="#F57A7B"></path><path transform="translate(35,175)" d="m0 0 4 2v5h6l1 2-5 2-1 2v17l1 5-1 1-1 21 1 78 12 1 2 1 17 1 29-1 32 1 22-1-2-13-3-4v-20l2-4 1 1 4 26 5 13v6l-127-1v-140z" fill="#691715"></path><path transform="translate(161,313)" d="m0 0h1l-1 7-88 1h-25v4l9 1-3 1v3h-13l-2-4v15l1 3 2-1v2h2v-4l9-1 1-9h4l1 5 19 1v-6l5 1v3l9-1 1-3h5v3h4v-3h10v4h-9v10h-4l-1-6-25 1v6l-2 1-17-1-1 3-10 1h-9v-34h122l5 1z" fill="#ED9D95"></path><path transform="translate(34,44)" d="m0 0h211v10l-4 1-9-1v-5l-34-1h-26l-49-1h-83l-1 1v116l-1 8-4 1z" fill="#651614"></path><path transform="translate(623,73)" d="m0 0h33v24l-9 1-1 95h-24v-46h-45v-1l9-1h37v47h2v-18h2v18h15v-98l3-1h7v-19h-25v49h-5v-49z" fill="#FCC6B9"></path><path transform="translate(835,266)" d="m0 0h18l1 3v77h7v-75h2v75h8l-1-3v-72l1-4 5-1 2 2-1 3h-3v79h-24v-79h-15z" fill="#3D3C3E"></path><path transform="translate(434,44)" d="m0 0 111 1v1l-34 1h-71l-2-1 2 62v26l-1 55-1 33h-3v-98l-1-31z" fill="#BE2024"></path><path transform="translate(1183,73)" d="m0 0h33v22l-1 2-4 1v95l-3 1v2l-3 1h-14l-7-2v-2h-3l-1-7 2 3v3h23v-42l1-56 1-1 7-1 1-18h-29v75l-3-1h2l-1-34-1-16-1-10v-14z" fill="#F77D7F"></path><path transform="translate(1538,39)" d="m0 0h10v3l4 2 1 8v175h-24v-1h19l-1-186h-9z" fill="#FBC2B2"></path><path transform="translate(1251,94)" d="m0 0h14v98h20v-98h16v7l-1-2-10-1v95l-1 4h-22l-3-1v-98h-14z" fill="#F88787"></path><path transform="translate(1493,39)" d="m0 0h4l1 180-1 7-4 1z" fill="#FCC3B3"></path><path transform="translate(380,44)" d="m0 0h39l-2 6h-2v-2l-5-1h-26v128l-1 48h-3z" fill="#C52327"></path><path transform="translate(53,161)" d="m0 0 5 2 1 1v8l-3 4 2 5 10 9 6 1-1-2v-11l2-5 1 2 3-1 2 1 3 8 2 1 3-7 4 2 1 5 1-6h1v7l-4 5-1 3-10 1v1l7 1v1h-16v2l-12 8h-3l2-5 5-6h2l-5-5-7-6-1-3-14-1-1-8 1-1h10l3-9z" fill="#FBC2B6"></path><path transform="translate(1375,271)" d="m0 0h31l6 4 2 5-1 6-6 5-4 1h-28z" fill="#FDF9F8"></path><path transform="translate(1369,98)" d="m0 0h27l4 8v10l-6 6-10 1h-15z" fill="#EA3637"></path><path transform="translate(93,207)" d="m0 0 4 1 1 3 1 16h8l11-4 11-8 7-6 3 1v7l-13 10-7 4-18 1 11 1-2 2h-15l-3-3h-8l-1 4-4 1v3l-11 2-4-2v-2l4-1-2-1v-2h2v-2l5-1v-2l3-2h14l2 1-2-7v-13z" fill="#FCF3F1"></path><path transform="translate(34,325)" d="m0 0h5v16l1 3 2-1v2h2v-4l9-1 1-9h4l1 5 19 1v-6l5 1v3l9-1 1-3h5v3h4v-3h10v4h-9v10h-4l-1-6-25 1v6l-2 1-17-1-1 3-10 1h-9z" fill="#3D3C3E"></path><path transform="translate(307,309)" d="m0 0m-2 1h2v2l-11 6-7 3-6 1h-11l-17-1-1 6-1-3h-2l-1 3-1 5h-2l-1-5h-3v8h-11v-8l7-5-1-1-32-1v-1l-11-1-1-2h46l48-1 9-3z" fill="#FBC2B2"></path><path transform="translate(265,162)" d="m0 0 12 2 4 2h6l6-2 13-1v3l-8 3h-2l5 5v2h2v2l3 1-2 6-6 1-11-4-3-5 1-3-4-1h-33l-8 3 1-5 8-4 18-2z" fill="#FCC3B3"></path><path transform="translate(1513,39)" d="m0 0h25l9 1 1 3v183h-1v-182h-39v182h21v1h-22v-187z" fill="#EF6768"></path><path transform="translate(332,138)" d="m0 0 5 1 1 1-1 7-6 7-5 2v6l5 2-1 4h-10l-3-1v-2h-2l-1-4-5-2-4-6-1-3v-8l5-1 2 1 1 8h2v-2l5-2 2-4z" fill="#FCC4B4"></path><path transform="translate(34,44)" d="m0 0h11l-1 2-5 2v116l-1 8-4 1z" fill="#6C1917"></path><path transform="translate(543,97)" d="m0 0h6v86l-1 7h-2l-1 2-2-3z" fill="#CF2729"></path><path transform="translate(211,83)" d="m0 0h10l1 5-4 5-9 5-9 1-1 30h5l1 4-3 1-6-3-3-24-4 1-3 10-3 1-1-4-2 7h-1l1-8 3-6 2-2 5-2 2-3 2-12h2v2l5-1 7-6z" fill="#DF4B4B"></path><path transform="translate(33,43)" d="m0 0h1v130l3-1 1-8 1-1 1-10h4l4 1v6l8-1h2l4 1v8l-3 3-1-7-5-3-3 9-1 2-10 1-2 3h-2l-1 140h-1z" fill="#F16F71"></path><path transform="translate(303,73)" d="m0 0 7 3 1 6 3 1 2-4 5-1h7l7 3 1 6-6 3-9-1-3-3-2 4h-3l-3 5h-3l-2 5v2l5 3 5 5v2l-5 2h-7v-1l6-1-1-3-6-1-2-10-3-1h2l1-4 1-5v-13z" fill="#FBC2B2"></path><path transform="translate(1443,74)" d="m0 0h1v19l9 1v78h-7v-69l1-3 5 1v-3h-6l-3-2z" fill="#EA3435"></path><path transform="translate(1508,44)" d="m0 0h39v34l-1 36h-1l-1-39-1-27-11-1h-17l-5 1v120l1 51-1 5 4 2h-6z" fill="#C02125"></path><path transform="translate(94,52)" d="m0 0 5 1 5 7v3l3-3 4-5 5-1 1 1-1 10-4 5h-2l-2 4h-2v7l-2-1-3-6-3 3h-7l-9-5 1-3-1-4 10-1 1-4-1-5 2-2z" fill="#E35354"></path><path transform="translate(588,143)" d="m0 0h31l3 1-1 2h-35l36 1v46h-1l-1-10v-26l-1-5h-27l-10 1v27l-1 13-2-1-1-13v-21l-1-8h-3v18h-1v-24z" fill="#C12125"></path><path transform="translate(224,240)" d="m0 0 4 1h9l1 5-4 4-11 4-16 12-7 6-4-2-4-1-6 5 2-4 15-15 10-7 8-4z" fill="#FEE6D3"></path><path transform="translate(1458,252)" d="m0 0h90l3 2h-3v2l3-1v21h-4v-20h-88l1 9 2-1 1 7h-5z" fill="#302F30"></path><path transform="translate(311,322)" d="m0 0 4 1-2 8h2v4l-9 1 13 1 1-6h10l5 2-3 2h-7v6h2l1 5h2l1 3-1 1h-5v-3h-3l1 3h-2v-4h-2l-1-2-4 2h-3v-7h-5v7h-9l-1-1v-5h-2v-2l-3-1v-2l-5 2h-5v-6h14l1 4 8-1 1-3h7z" fill="#BE9E95"></path><path transform="translate(264,331)" d="m0 0h8v5l-1 1h2l1-4 2 1v3l9 1v1l-14 1 2 2h-2v7l-4-1 2-2-6 1-2-1v-2l-4 2-2 4h-19l1-8 2-2h-2l1-4h24v-4z" fill="#DCAFA2"></path><path transform="translate(814,252)" d="m0 0h96l3 1-1 5-1 17h-1l-1-18h-63l-31-1z" fill="#373638"></path><path transform="translate(1481,97)" d="m0 0h2v75h-6v-74z" fill="#C02025"></path><path transform="translate(312,195)" d="m0 0 7 1 2 2 2 13-1 4h8l4 1 2 5 4 2v2l-6 3h-9l-1 3h-2v-2l-7-4 2-4h4l-1-4h-8l-1-1v-15z" fill="#FCC3B3"></path><path transform="translate(744,269)" d="m0 0h1l1 21v37l-1 19h58v1l-27 1h-34l-1-1v-76h2z" fill="#544C4C"></path><path transform="translate(1028,271)" d="m0 0h5l-1 79h-24l1-4h19l-1-21v-18z" fill="#3F3D3F"></path><path transform="translate(1290,98)" d="m0 0h7l3 1 2 4h-8v90l-2 2-2-1z" fill="#A91119"></path><path transform="translate(1549,326)" d="m0 0h2v23l-3 1h-80l-1-2 1-2 26-1h46l6 1 1 2 1-21z" fill="#524A4A"></path><path transform="translate(835,266)" d="m0 0h18l1 3 1 78 15 1v1h-20v-78h-15z" fill="#3A393B"></path><path transform="translate(761,261)" d="m0 0h1l1 36h2v34h40v5h-42l-2-2z" fill="#3D3C3E"></path><path transform="translate(296,98)" d="m0 0h4l2 5v5h7l1 4-1 1-8 1-2-4h-2l-1 10-6 15-5 7-2-2 1-10 1-6v-8l-1-6 2-3h5l3-3z" fill="#FEE9D6"></path><path transform="translate(1111,79)" d="m0 0h1l1 37v41l-1 15h-5v-26l1-31v-13l2-19z" fill="#CB2527"></path><path transform="translate(600,223)" d="m0 0 104 1 37 1v1h-233v-1l57-1z" fill="#C82426"></path><path transform="translate(786,75)" d="m0 0h4v97h-4z" fill="#FDDDD1"></path><path transform="translate(472,94)" d="m0 0h8l7 2-4 1-9-1v76h-5v-50l1-27z" fill="#FBC3BA"></path><path transform="translate(1352,221)" d="m0 0h138l1 3h-154l-1-2z" fill="#E45051"></path><path transform="translate(443,97)" d="m0 0 6 1v74l-5-1-1-8 1-14-1-27z" fill="#B81C23"></path><path transform="translate(647,98)" d="m0 0h4v83l-1 12h-3z" fill="#A71A1F"></path><path transform="translate(1210,98)" d="m0 0h5v67l-1 28h-3z" fill="#BB2025"></path><path transform="translate(1492,47)" d="m0 0h1v62l-1 6-4-4v-36l1-8-43 1-3-2 3-1 43-1 2-13z" fill="#C72426"></path><path transform="translate(515,252)" d="m0 0h87v4h-89l-1-3z" fill="#5A4E4C"></path><path transform="translate(1503,144)" d="m0 0h1l1 13 2-4v73l-4-1-1-2v-67z" fill="#FDDCD0"></path><path transform="translate(435,223)" d="m0 0h165v1l-35 1-57 1h-73z" fill="#E73233"></path><path transform="translate(40,191)" d="m0 0h6l7 10 2 6h-2l-2 7-5 8h-7v-11l1-2-1-4v-8z" fill="#B73E3E"></path><path transform="translate(1113,74)" d="m0 0h4v29l-1 69h-4z" fill="#F9ACA2"></path><path transform="translate(438,221)" d="m0 0h152v1l-5 1-93 1h-33l-24-1z" fill="#E14B4B"></path><path transform="translate(1477,93)" d="m0 0h5l-2 4-2 1-1 74h-4v-78z" fill="#F89391"></path><path transform="translate(414,305)" d="m0 0h54l1 1v40h-1l-1-34v35h-2v-36h-51v-1l46-1h-45z" fill="#3D3C3E"></path><path transform="translate(1463,271)" d="m0 0h4l1 79h-5z" fill="#FCCCBD"></path><path transform="translate(39,181)" d="m0 0h14l4 6 9 7v2l-5 5-5 6-3-1-2-6-5-8-6-1v6h-1v-9l2-3 4-2-6-1z" fill="#932828"></path><path transform="translate(1229,65)" d="m0 0h165l1 2-53 1h-104l-12-1z" fill="#C72426"></path><path transform="translate(416,63)" d="m0 0h1l1 19-1 144h-27v-1h25l-1-3-4-1h2l2-28 1-41v-78z" fill="#C92426"></path><path transform="translate(1285,94)" d="m0 0h16v1h-13l1 7v69l-4 2z" fill="#FBB4A8"></path><path transform="translate(1345,252)" d="m0 0h34l31 1 9 3-1 2-8-1-62-1 1 5v10h-4z" fill="#413D3E"></path><path transform="translate(441,44)" d="m0 0h185v1l-31 1-16 1h-68v-1l-70-1z" fill="#BD2327"></path><path transform="translate(430,108)" d="m0 0h1l1 11v51h1l1 11v45h-4z" fill="#F77C7F"></path><path transform="translate(32,200)" d="m0 0h1v116l-4-2v-26l1-50 1-3z" fill="#FDDBCC"></path><path transform="translate(713,113)" d="m0 0 6 1 4 17 2 3v4l-3 1h-14v-7l3-12z" fill="#BE2227"></path><path transform="translate(1369,98)" d="m0 0h27l4 8v10l-3 4-3-1 1-2-1-14h-21v20h-4z" fill="#AC121B"></path><path transform="translate(1365,144)" d="m0 0h19v3h-15v49h-25v-2l20-1z" fill="#F47977"></path><path transform="translate(1392,223)" d="m0 0h64l34 1v2h-133v-1l33-1z" fill="#E02F30"></path><path transform="translate(32,44)" d="m0 0h1v112h-1l-2-8-1-3v-24l1-26v-39l1-2z" fill="#FDD6C4"></path><path transform="translate(75,173)" d="m0 0 1 2 3-1 2 1 3 8 2 1 3-7 4 2 1 5 1-6h1v7l-4 5-1 3h-21l4-2-1-2v-11z" fill="#F8B0A4"></path><path transform="translate(79,128)" d="m0 0 3 1 2 4 3 1 2 5 2 2 2 5 2 2h8v2l7 1-3 4 1 2-6-1 1-3-18-1v-2h-2l-4-5-1-8h-2l-1-8 3 4z" fill="#FBC0B3"></path><path transform="translate(1043,112)" d="m0 0 3 1 5 18 2 7-1 1h-17l1-7 6-19z" fill="#CA292B"></path><path transform="translate(441,172)" d="m0 0h3v20h47l-4 2 1 2-4 1h-40l-2-4-2-1v-19z" fill="#F26466"></path><path transform="translate(34,325)" d="m0 0h5v16l1 3 2-1v2h2v-4l9-1h10v6h-9l-1 3-10 1h-9z" fill="#C8A9A0"></path><path transform="translate(1277,284)" d="m0 0 5 2 8 20h-20l2-9 4-12z" fill="#FCF6F4"></path><path transform="translate(549,97)" d="m0 0 3 1v82l-1 11 1 2h-3z" fill="#F67879"></path><path transform="translate(1369,147)" d="m0 0h18l5 9-1 4-5-7-12-4-1 45-3 2-1-1z" fill="#BA1E24"></path><path transform="translate(929,252)" d="m0 0h25l3 1 1 39h-4v-36h-26l-1 15h-2v-18z" fill="#72615E"></path><path transform="translate(856,74)" d="m0 0h4v62l-1 7-3-3z" fill="#F88386"></path><path transform="translate(40,153)" d="m0 0h4l4 1v6l8-1h2l4 1v8l-3 3-1-7-5-3-3 9-1 2-10 1-2 3h-3v-3l3-1 1-8 1-1z" fill="#9E2D2C"></path><path transform="translate(1365,94)" d="m0 0h29l5 4 3 5v9l-2 3-2-12-2-4-27-1v25h-4z" fill="#F78786"></path><path transform="translate(794,345)" d="m0 0h18l13 1v4h-84v-2l35-1 18-1z" fill="#383739"></path><path transform="translate(668,283)" d="m0 0 3 3 7 18v2h-20l1-5 8-16z" fill="#FDF5F3"></path><path transform="translate(810,119)" d="m0 0 3 3 1 3v45l-1 17-1 6h-2z" fill="#B71D22"></path><path transform="translate(34,40)" d="m0 0h63v2l2 1-1 1h-64z" fill="#E35252"></path><path transform="translate(183,54)" d="m0 0h8l1 5 3 1 2 7v11l-1 2-4-2-6-5-3-6z" fill="#FDF7F6"></path><path transform="translate(211,83)" d="m0 0h10l1 5-4 5-9 5-4 1h-8l1-5 7-8z" fill="#FCF1F0"></path><path transform="translate(208,331)" d="m0 0h9l4 3 1 4v9l-1 3h-10l-1-4-4-1 2-1-2-1v-9z" fill="#C6A59C"></path><path transform="translate(1251,94)" d="m0 0h14v99h24v4h-22l-3-1v-98h-14z" fill="#E95556"></path><path transform="translate(1546,143)" d="m0 0h1v83h-5v-2h-6l1-2 4-2 2-7 2-69z" fill="#D1282A"></path><path transform="translate(441,74)" d="m0 0h2v20h5v2h2v76h-1v-74h-5v24l-1 14-2 4z" fill="#E95959"></path><path transform="translate(543,73)" d="m0 0h30v22h-1v-21h-28v19h6l3 2v97h19v-5h1v6h-21l-2-2 1-11v-82l-7-2-1-2z" fill="#FCC3B4"></path><path transform="translate(393,266)" d="m0 0h1l-1 81h-3v-76z" fill="#3B3A3C"></path><path transform="translate(227,216)" d="m0 0 4 1 7 6 2 4 2 1-1 9-3-1v2l-5-1-4-5-3-3-2-5 1-6z" fill="#FEE2CF"></path><path transform="translate(972,77)" d="m0 0h1v8l-8 26-11 34-2 7-4 2-1-13 6-4 4-13 14-43z" fill="#CE2A2B"></path><path transform="translate(465,252)" d="m0 0h31l2 1v12l-3 4v-13h-26v34l-2 1v-29h-2z" fill="#685A58"></path><path transform="translate(401,261)" d="m0 0 1 3 3 1-2 2v61l-1 18h8v-39h1l1 5v36h-17l-1-2h7z" fill="#3D3C3E"></path><path transform="translate(143,59)" d="m0 0h8l6 3 3 4h-2l1 8-10 7-2-2-1 2h-2v-5l6-5-7-7-1-4z" fill="#FAC0B6"></path><path transform="translate(265,162)" d="m0 0 8 1v2l3 1 8 3-2 2-6 1-28 1-8 3 1-5 8-4 18-2z" fill="#FDDED1"></path><path transform="translate(341,331)" d="m0 0h11l2 1 1 8-1 5-3 2v-3h-2l-1 3h-6l-3-3v-4l-3-1v-3h4z" fill="#4E4848"></path><path transform="translate(107,78)" d="m0 0 4 2 1 5-2 1-1-2-3 3 1 4 4 1-3 9-4 3-1-2h-4v-3h3l1-6h-9l-2-1 1-4h2v-2l-2-1 7-2 6 1z" fill="#FDE9E3"></path><path transform="translate(229,55)" d="m0 0h12l3 5-1 3-7 4h-14l-2-6z" fill="#FDF7F5"></path><path transform="translate(1335,73)" d="m0 0h67l5 2 5 5h-5l-5-2-6-1-1-2-56-1 1 20 3 1-4 1-4-1z" fill="#FBB5A9"></path><path transform="translate(645,93)" d="m0 0h6l-4 1 1 3-1 1-1 94h-2l-1-96-1-2z" fill="#FDE2D6"></path><path transform="translate(1506,40)" d="m0 0h1v52h-2l-1 3h-2v-30l1-21 2-1z" fill="#FDDFD2"></path><path transform="translate(320,331)" d="m0 0h10l5 2-3 2h-7v6h2l1 5h2l1 3-1 1h-5v-3h-3l1 3h-2v-4h-2l-1-2-4 2h-3v-7l5-1 3-1z" fill="#FCD2C5"></path><path transform="translate(135,209)" d="m0 0 4 1v7l-13 10-3 1h-3l-17 2 4-3 11-4 11-8z" fill="#FDF0ED"></path><path transform="translate(1028,75)" d="m0 0h1l-1 10-8 26-10 32-3 1 1-7 9-31 6-17z" fill="#D12E2C"></path><path transform="translate(262,185)" d="m0 0h4v2h2v2h2v2l-4 2-1 3-7 3-7 2h-4l-1-3 2-4h2v-2l6-5z" fill="#FBC1B0"></path><path transform="translate(221,143)" d="m0 0h8l8 6 5 6-2 4h-9l-9-10z" fill="#FCF3F2"></path><path transform="translate(264,331)" d="m0 0h8v5l-1 1h2l1-4 2 1v3l9 1v1l-14 1 2 2h-2v7l-4-1 2-2-6 1-2-1v-2h-3v-2h2v-2l-14-1v-1l15-2 1-4z" fill="#3C3B3D"></path><path transform="translate(1443,98)" d="m0 0h9v3l-5-1v46l-1 26h-2z" fill="#CA2527"></path><path transform="translate(1028,161)" d="m0 0 34 1 2 7v9l-2-3-3-8-7-2h-16l-5 1-3 10-3 6-2 1-1-4 2-4 2-10z" fill="#C32226"></path><path transform="translate(434,44)" d="m0 0 111 1v1l-34 1h-71l-2-1v2l-4-1z" fill="#882726"></path><path transform="translate(1531,252)" d="m0 0h17l3 2h-3v2l3-1v21h-4v-20h-55v-1l39-1z" fill="#655856"></path><path transform="translate(1290,98)" d="m0 0h7l3 1 2 4h-9v6l-1 2v72l1-9h1v19l-2 2-2-1z" fill="#B81C22"></path><path transform="translate(251,93)" d="m0 0h8l1 4-6 7-8 4h-6l-1-5 5-6z" fill="#FDF6F5"></path><path transform="translate(278,296)" d="m0 0h8l4 2v6l-2 2-4 1h-10l-7-2 2-4 6-4z" fill="#FCC3B3"></path><path transform="translate(35,175)" d="m0 0 4 2v5h6l1 2-5 2-1 2-1 17-2 6h-3v-35z" fill="#671615"></path><path transform="translate(332,138)" d="m0 0 5 1 1 1v5l-6 4h-2l-1 3-7 1-5-2 2-5 2-4z" fill="#FCCDBD"></path><path transform="translate(247,117)" d="m0 0 5 1 2 4-14 10h-9l2-8 11-6z" fill="#FCF3F2"></path><path transform="translate(243,77)" d="m0 0h2l1 4v10l-6 8-6 2v-11l4-8z" fill="#FCF5F4"></path><path transform="translate(1488,331)" d="m0 0h39l1 5-2 1-38-1v-4z" fill="#3D3C3E"></path><path transform="translate(39,326)" d="m0 0 4 1-2 1v2h8l4 1v10h-9v4h-4l-2-4v-11z" fill="#FDF8F7"></path><path transform="translate(113,54)" d="m0 0 4 1-1 10-4 5h-2l-2 4h-2v7l-2-1-3-13 4-1 2-6 4-5z" fill="#FDF1EF"></path><path transform="translate(247,276)" d="m0 0h17l2 1-1 7-4 2h-13l-3-3 1-6z" fill="#FDDED0"></path><path transform="translate(993,97)" d="m0 0 4 1h-2l-4 17-9 27-6 14-1 5h-2l1-8 18-54z" fill="#CD2B2D"></path><path transform="translate(1443,172)" d="m0 0 2 1v19l37 1 2 1v2l2 1h-43z" fill="#ED5354"></path><path transform="translate(699,162)" d="m0 0h33l4 10 1 7-4-4-3-9-5-1h-16l-7 3-4 6-3 7-1-4 4-13z" fill="#C72628"></path><path transform="translate(1490,155)" d="m0 0h2v54h-1l-2-8-2-10 1-22 1-13z" fill="#B61B21"></path><path transform="translate(451,118)" d="m0 0h3v54h-3l-1-9v-20z" fill="#FEE0D4"></path><path transform="translate(1477,100)" d="m0 0 3 4 1 2v19l-1 4-1 37-1 6h-1z" fill="#D53032"></path><path transform="translate(218,276)" d="m0 0 5 1 3 5 2 5-2 11-4-1-5-7-1-10z" fill="#FEE3D1"></path><path transform="translate(434,47)" d="m0 0 4 1v23l-2-2v20l1 23v26l-2 3v-17l-1-31z" fill="#CE272A"></path><path transform="translate(411,39)" d="m0 0h9v98h-1v-94h-35l2-2 25-1z" fill="#FBC1B2"></path><path transform="translate(143,331)" d="m0 0h10l4 2 1 2v11h-6l1-11h-6l1 11h-6v-14z" fill="#413E3F"></path><path transform="translate(253,126)" d="m0 0h3l1 5-2 9-3 3-2 4-4-1-2-4 1-6 2-5z" fill="#FCF5F4"></path><path transform="translate(76,227)" d="m0 0h14v1l-9 1-2 1 6 1-2 5-4 1v3l-11 2-4-2v-2l4-1-2-1v-2h2v-2l5-1v-2z" fill="#FDF1EE"></path><path transform="translate(53,161)" d="m0 0 5 2 1 1v8l-3 3h-2v2h-16l1-5h10l3-9z" fill="#FDF5F3"></path><path transform="translate(885,75)" d="m0 0h2v10l-1 8 3 1-1 2h-8v97h-22v-1h21v-98l5-1z" fill="#FCC9BC"></path><path transform="translate(436,164)" d="m0 0 2 2v56h-3v-54z" fill="#A81018"></path><path transform="translate(699,80)" d="m0 0h1l-1 9-10 31-4 10-4 13-2 2 1-10 5-17 5-13 6-16z" fill="#CB292C"></path><path transform="translate(433,95)" d="m0 0h1v86h-1l-1-9h-1v-64z" fill="#F0883A"></path><path transform="translate(1301,332)" d="m0 0 3 3 4 10 22 1v-14h3v17l-2 1h-21l-5-5-4-11z" fill="#393738"></path><path transform="translate(1e3 292)" d="m0 0 5 1-1 3h-52l-2-1v-2z" fill="#3D3C3E"></path><path transform="translate(325,200)" d="m0 0 3 2 1 1 1-1h9l3 2-2 7-11 3h-5v-7l2-3z" fill="#FCE6E0"></path><path transform="translate(788,120)" d="m0 0h1l1 9v43h-4v-31z" fill="#FCC3B3"></path><path transform="translate(1491,74)" d="m0 0h1l1 5v30l-1 6-4-4v-27z" fill="#BA1E24"></path><path transform="translate(78,331)" d="m0 0 5 1v3l9-1 1-3h5v3h4v-3h10v4h-9v10h-4l-1-6h4v-2h-23l-1-1z" fill="#A18A84"></path><path transform="translate(384,252)" d="m0 0h23l7 1v39h-1v-36h-28v15h-1z" fill="#454041"></path><path transform="translate(414,293)" d="m0 0h54v3h-54z" fill="#413F40"></path><path transform="translate(1142,126)" d="m0 0h2l7 12-1 2-4-2-1 45-2-1z" fill="#C92629"></path><path transform="translate(188,108)" d="m0 0 1 4 3-1v21l-2 6-3-3-1-9-2-1 2-4-3 1-2-7 2-2v6l2-1z" fill="#982C2B"></path><path transform="translate(1183,73)" d="m0 0 4 1-1 75-3-1h2l-1-34-1-16-1-10v-14z" fill="#ED7472"></path><path transform="translate(577,150)" d="m0 0h38v1l-23 1-10 1v27l-1 13-2-1-1-13v-21z" fill="#C22125"></path><path transform="translate(280,331)" d="m0 0h1v6h5v12l-5 1 1-4-6-1v5l-5-1v-8l-8-1v-1l11-1 2-1 1-3 2 1z" fill="#DBBAAF"></path><path transform="translate(1430,221)" d="m0 0h60l1 3h-38l-23-1z" fill="#E34545"></path><path transform="translate(1321,65)" d="m0 0h73l1 2-53 1-21-1z" fill="#CA2527"></path><path transform="translate(954,311)" d="m0 0h4v39h-4z" fill="#E1B8AC"></path><path transform="translate(488,271)" d="m0 0h1v79h-11v-1h10l-3-1-10-1v-26l2-2v19l3 1-3 1-1 6h12z" fill="#514A4A"></path><path transform="translate(1180,93)" d="m0 0h1v42l-1 4h-2l-2-7 1-29z" fill="#CA2527"></path><path transform="translate(703,73)" d="m0 0h27l5 22 3 3 2 7v9h-1v-5h-2l-10-30v-5h-21l-1 5-4 2z" fill="#FBC1B2"></path><path transform="translate(432,50)" d="m0 0h1l1 45-2 13h-1l-1-9v-39l1-1z" fill="#F88687"></path><path transform="translate(543,331)" d="m0 0h24l5 1h10l-1 4h-38z" fill="#3C3B3D"></path><path transform="translate(588,143)" d="m0 0h31l3 1-1 2h-35l36 1v1h-49v-4z" fill="#E65557"></path><path transform="translate(1513,39)" d="m0 0h25l9 1v3h-40v-3z" fill="#F88A8A"></path><path transform="translate(332,334)" d="m0 0h4l1 5 2 2-2 4h-2v5h-5v-4l-3 1v-6h-2v-6z" fill="#F3DDD7"></path><path transform="translate(1136,121)" d="m0 0h1v8h2l2 7v10l-1 9h-1l-2 15h-1z" fill="#E85B5C"></path><path transform="translate(1250,98)" d="m0 0h14v28l-3-3-1-19h-8l-2-1z" fill="#C72326"></path><path transform="translate(79,128)" d="m0 0 3 1 2 4 3 1 2 10-1 3-4 2-2-5-4-4v-3h-2l-1-8 3 4z" fill="#FCEBE9"></path><path transform="translate(736,91)" d="m0 0 3 3 3 10 7 26 3 10v4h-2l-9-27-1-2-2-14z" fill="#D53234"></path><path transform="translate(1458,254)" d="m0 0h71v1l-37 1h-33l1 9 2-1 1 7h-5z" fill="#3D3C3E"></path><path transform="translate(575,72)" d="m0 0 2 1 1 19v30h-2l-1-3-1-45z" fill="#E65252"></path><path transform="translate(148,215)" d="m0 0 5 5 4 9-1 10-4 19-1 9h-1l-1-11 1-11 3-11-1-8-4-9z" fill="#741C1B"></path><path transform="translate(1090,172)" d="m0 0h6v21h-24l-4-1-2-12 2 1 5 10 20 1-1-3v-16z" fill="#FCC3B4"></path><path transform="translate(992,305)" d="m0 0h16v4h-18l-33-1 1-2z" fill="#3D3C3E"></path><path transform="translate(79,176)" d="m0 0h2l4 8 3-4 1-3 4 2 1 5 1-6h1v7l-4 5-1 3-4-1v-2l-6-2-1-2z" fill="#FDDED4"></path><path transform="translate(1537,46)" d="m0 0h6l4 3v29l-1 36h-1l-1-39-1-27-6-1z" fill="#CA2527"></path><path transform="translate(1443,74)" d="m0 0h1v19l9 1v78h-1v-74h-6l-3-2z" fill="#F8908F"></path><path transform="translate(574,150)" d="m0 0h3l2 10v9l-2 17-2-3-1-2z" fill="#E24949"></path><path transform="translate(886,118)" d="m0 0h2v66h-2l-1-63z" fill="#CA2527"></path><path transform="translate(481,98)" d="m0 0h9l9 6 5 6 4 13v17h-1l-3-19-3-10-7-6-7-3v-2l-6-1z" fill="#C52628"></path><path transform="translate(543,266)" d="m0 0h40l-1 5h-2v5h-1v-7h-36z" fill="#3C3B3D"></path><path transform="translate(1040,129)" d="m0 0 2 1v2l5-1 3-1 3 6-1 3h-17l1-7 1-2z" fill="#BF2227"></path><path transform="translate(436,68)" d="m0 0 2 3v67h-1l-2-49v-20z" fill="#A70F18"></path><path transform="translate(1136,192)" d="m0 0h1v5h-34l2-1v-2l2-1z" fill="#F15C5E"></path><path transform="translate(551,345)" d="m0 0h42l8 1v1l-22 1-59-1v-1z" fill="#987C75"></path><path transform="translate(578,292)" d="m0 0h3v19h-3v-16h-35v-2z" fill="#86706B"></path><path transform="translate(857,74)" d="m0 0h3v62h-1l-1-29-1-3z" fill="#FCC3B3"></path><path transform="translate(1251,94)" d="m0 0h14v71h-1v-67h-14z" fill="#F77C7F"></path><path transform="translate(1375,311)" d="m0 0h3v39l-4-1z" fill="#FDEDE8"></path><path transform="translate(656,252)" d="m0 0h17l8 1 5 12 1 4-2 1-6-13-24-1z" fill="#393839"></path><path transform="translate(770,173)" d="m0 0h6v18l-1 3h-5z" fill="#BA1E24"></path><path transform="translate(1008,252)" d="m0 0h31l2 2-4 2h-28z" fill="#3D3C3E"></path><path transform="translate(224,240)" d="m0 0 4 1h9l1 5-4 4-9 2-1-5 1-4-3-1z" fill="#FDDBCD"></path><path transform="translate(1508,44)" d="m0 0h39v5l-4-2h-28l-5 1-1 18h-1z" fill="#BE1F24"></path><path transform="translate(735,252)" d="m0 0h28l2 1v4l-29-1z" fill="#353435"></path><path transform="translate(296,98)" d="m0 0h4l2 5v5h7l1 4-1 1-8 1-2-4h-2l-1 3-2-9z" fill="#FDDCCF"></path><path transform="translate(559,347)" d="m0 0h20v1l23 1v1h-82v-1h39z" fill="#3D3C3E"></path><path transform="translate(580,81)" d="m0 0h1v40l2 2h-5v-36z" fill="#BA1B21"></path><path transform="translate(979,73)" d="m0 0h23v23l-1 1h-8l4-5 1-6v-12h-19z" fill="#FBBEB0"></path><path transform="translate(208,331)" d="m0 0h9l4 3 1 5-1 7h-4v-11h-7l-1 10h-3l2-1-2-1v-9z" fill="#323132"></path><path transform="translate(1488,293)" d="m0 0h39l-1 3h-38z" fill="#3D3C3E"></path><path transform="translate(1495,266)" d="m0 0h34v5l-5-1-32-1-3-2z" fill="#3D3C3E"></path><path transform="translate(50,199)" d="m0 0 3 2 2 6h-2l-2 7-4 7-4-1 1-14 5-1z" fill="#FCE6DF"></path><path transform="translate(1227,75)" d="m0 0h2l1 3v24h19l1-4v5h-24v-11z" fill="#FCCBBD"></path><path transform="translate(1225,73)" d="m0 0h1v28h-3l-2-2-1-11 3-9z" fill="#CA2527"></path><path transform="translate(1011,306)" d="m0 0h1l1 5-1 34h-1l-1-6-1 7h-1v-35h2z" fill="#3C3B3D"></path><path transform="translate(380,44)" d="m0 0h39l-2 6h-2v-2l-5-1h-26v2l-4 1z" fill="#B7191F"></path><path transform="translate(292,240)" d="m0 0 13 1 1 5-11 2-9-2-1-3 7-1z" fill="#FDDACC"></path><path transform="translate(652,73)" d="m0 0h4v24h-8l-1-3 4-1z" fill="#F99895"></path><path transform="translate(432,40)" d="m0 0 12 1v1l6 1v1h-16v44h-1l-1-29h-1v-18z" fill="#F27A61"></path><path transform="translate(1354,316)" d="m0 0h1v30h18l2 3-1 1h-20z" fill="#383739"></path><path transform="translate(194,324)" d="m0 0 2 2 1 5 5 2v1h-5v11l-5 1-1-15z" fill="#2D2C2C"></path><path transform="translate(1274,252)" d="m0 0h14l5 2 2 7-2 2-3-6-24-1 1-3z" fill="#3E3B3B"></path><path transform="translate(1187,73)" d="m0 0h29v22l-1 2h-8l1 8h1v7h-3v-18l1-1 7-1 1-18h-28z" fill="#FAB3A7"></path><path transform="translate(1509,168)" d="m0 0h1l1 51-1 5 4 2h-6v-47z" fill="#C92426"></path><path transform="translate(474,97)" d="m0 0h5l-3 5v54l1 16h-3z" fill="#BE1F24"></path><path transform="translate(1368,147)" d="m0 0h1v49h-25v-2l20-1 1-5h1v5h2z" fill="#F35F61"></path><path transform="translate(1488,305)" d="m0 0h35l2 2-3 1h-34z" fill="#3D3C3E"></path><path transform="translate(1396,99)" d="m0 0 3 4 1 3v10l-3 4-3-1 1-2-1-14h-21v-1h23z" fill="#C6272A"></path><path transform="translate(709,345)" d="m0 0h7l5 1v4h-24l-1-4z" fill="#3B3A3C"></path><path transform="translate(934,184)" d="m0 0 1 4 3 1 1 3h24v3l-11 2h-11l-5-4v-3h-2z" fill="#F3655F"></path><path transform="translate(1069,192)" d="m0 0 27 1 1 4h-25l-1-3z" fill="#F56B6D"></path><path transform="translate(690,114)" d="m0 0h1l-1 10-10 30-2 2 1-5 5-21z" fill="#FBB9AC"></path><path transform="translate(84,67)" d="m0 0h3 10l3 2-1 4-5 2-9-1-3-2z" fill="#FCEBE7"></path><path transform="translate(852,186)" d="m0 0 3 2v4l25 2v3h-23l-3-2z" fill="#F57072"></path><path transform="translate(1429,172)" d="m0 0 4 1v20h-24v-1h20z" fill="#FCC4B5"></path><path transform="translate(162,331)" d="m0 0h13l1 4h-10l1 10-5 1z" fill="#2D2C2D"></path><path transform="translate(135,209)" d="m0 0 4 1v7l-13 10-3 1 1-5 4-3h2l2-5v-3z" fill="#FDDFD6"></path><path transform="translate(251,324)" d="m0 0h4v6h-4v6l-14 1-5-1v-1h11v-8l4-1v6l2-6z" fill="#FDE3D9"></path><path transform="translate(573,148)" d="m0 0h41v1l-6 1-30 1-4-1v18h-1z" fill="#AF141B"></path><path transform="translate(1097,173)" d="m0 0 5 1v19l-2 1-2-1-1-3z" fill="#BE2024"></path><path transform="translate(831,151)" d="m0 0 5 5 6 10 7 10 6 10-1 2-4-1-2-5v-3h-2l-3-6v-2h-2l-1-5h-2l-7-13z" fill="#FBBAAD"></path><path transform="translate(1159,152)" d="m0 0 5 5 6 9 1 3h2l5 9 1 5-3 1-1-7h-2l-4-6v-2h-2l-8-15z" fill="#FBBAAD"></path><path transform="translate(621,78)" d="m0 0h1v44l-3-1 2-4h-30v-1l29-2z" fill="#C82426"></path><path transform="translate(94,52)" d="m0 0 5 1 4 5v6h-10l-1-9 2-2z" fill="#FBD2CD"></path><path transform="translate(1408,192)" d="m0 0 24 1 1 4h-23z" fill="#F5686A"></path><path transform="translate(34,325)" d="m0 0h5v21h-5z" fill="#333233"></path><path transform="translate(1375,292)" d="m0 0 31 1-2 2-5 1h-24z" fill="#3D3C3E"></path><path transform="translate(1446,65)" d="m0 0h41l-1 2-40 1-3-2z" fill="#CA2527"></path><path transform="translate(1419,342)" d="m0 0 5 3 20 1v4h-18l-5-3z" fill="#3C3B3D"></path><path transform="translate(1442,175)" d="m0 0h1v17l-1-3-8-1-1-6 2-3 7-1z" fill="#C72326"></path><path transform="translate(573,74)" d="m0 0h1l1 11 1 37 2 1h-5z" fill="#E53233"></path><path transform="translate(1335,74)" d="m0 0h4l1 20 3 1-4 1-4-1z" fill="#FDE0D4"></path><path transform="translate(381,49)" d="m0 0h3v22h-1v-7h-2v27h-1v-41z" fill="#CA2527"></path><path transform="translate(147,335)" d="m0 0h6l-1 15h-9v-4h5z" fill="#C8C1C0"></path><path transform="translate(1288,95)" d="m0 0h13v6l-1-2-10-1v43h-1z" fill="#F2635F"></path><path transform="translate(410,307)" d="m0 0h1l1 5v36h-9v-2h7z" fill="#3F3D3F"></path><path transform="translate(311,322)" d="m0 0 4 1-2 8h2v4l-9 1h-11l-6-2v-3h6l1 4 8-1 1-3h7z" fill="#9B827C"></path><path transform="translate(780,194)" d="m0 0h30v3h-30z" fill="#F46769"></path><path transform="translate(239,340)" d="m0 0 11 1 1 4h-7l-1 5h-7l1-8z" fill="#C7BFBE"></path><path transform="translate(683,192)" d="m0 0h8l-1 4-11 1h-12l1-4z" fill="#EF5E5F"></path><path transform="translate(786,75)" d="m0 0h4v26l-2-3-2 1z" fill="#FDD4C6"></path><path transform="translate(323,331)" d="m0 0h7l5 2-3 2h-7l1 9-1 1h-5l-1-4h2v-2l-2-1 2-2v-3h2z" fill="#3B3A3B"></path><path transform="translate(532,131)" d="m0 0 2 4-1 14-5 13-1 2h-2l4-17z" fill="#C8272A"></path><path transform="translate(1045,162)" d="m0 0h17l2 7v9l-2-3-3-8-7-2-14-1v-1z" fill="#CA2629"></path><path transform="translate(1480,144)" d="m0 0 2 1v27h-4l1-27z" fill="#A70F18"></path><path transform="translate(519,346)" d="m0 0 40 1v2l-41 1z" fill="#302F30"></path><path transform="translate(709,159)" d="m0 0h20l3 3h-33v-2z" fill="#FCCBBC"></path><path transform="translate(543,305)" d="m0 0h28l2 2-5 1h-25z" fill="#3D3C3E"></path><path transform="translate(811,252)" d="m0 0h3l1 4-1 5-1 16h-3v-23z" fill="#C1A198"></path><path transform="translate(30,125)" d="m0 0h2l1 14v17h-1l-2-8-1-3v-19z" fill="#FEE9D7"></path><path transform="translate(69,196)" d="m0 0h19v1h-16v2l-12 8h-3l2-5 5-5v2z" fill="#F4A098"></path><path transform="translate(766,172)" d="m0 0 4 1v20h-4z" fill="#F27274"></path><path transform="translate(380,39)" d="m0 0h31l7 1v1l-32 1-7 1-1-3z" fill="#F67477"></path><path transform="translate(1184,193)" d="m0 0h23l1 3-3 1h-14l-7-2z" fill="#F46163"></path><path transform="translate(1206,135)" d="m0 0h1l1 16-2 41h-1v-42z" fill="#FCC3B3"></path><path transform="translate(1285,94)" d="m0 0h16v1h-13v7h-1l-1 49h-1z" fill="#FCC3B3"></path><path transform="translate(411,39)" d="m0 0h9v5l-36-1 2-2 25-1z" fill="#FCC7B7"></path><path transform="translate(855,97)" d="m0 0h1l1 43 1 1v9l-5-5 1-12z" fill="#EE5556"></path><path transform="translate(126,84)" d="m0 0 2 1v1h2l1 2v8l-4 3-3-5-2-1 2-7z" fill="#FBC5BA"></path><path transform="translate(934,346)" d="m0 0h20v4h-20z" fill="#4E4645"></path><path transform="translate(279,297)" d="m0 0 5 1 3 6-5 2-9-1-3-3 7-1z" fill="#FEE1D4"></path><path transform="translate(76,197)" d="m0 0h44l-1 3h-15l-28-2z" fill="#CA2527"></path><path transform="translate(1290,152)" d="m0 0h1l1 31 1-9h1v19l-2 2-2-1z" fill="#C42225"></path><path transform="translate(39,177)" d="m0 0h14l9 10h-3l-6-5-14-1z" fill="#F79893"></path><path transform="translate(1369,147)" d="m0 0h18l5 9-1 4-5-7-12-4-2 1-3-1z" fill="#B42326"></path><path transform="translate(853,125)" d="m0 0 2 4-1 15-5-5-3-4v-2l5-2z" fill="#C72528"></path><path transform="translate(1481,97)" d="m0 0h2v29l-2-1-1-19-3-6v-2z" fill="#BA1C22"></path><path transform="translate(1392,94)" d="m0 0 5 2 5 7v9l-2 3-2-12-2-4-21-2v-1l14-1z" fill="#FCC4B5"></path><path transform="translate(1491,74)" d="m0 0h1v30l-3-1v-21z" fill="#A70F18"></path><path transform="translate(434,44)" d="m0 0 33 1 5 1v1h-32l-2-1v2l-4-1z" fill="#A60F18"></path><path transform="translate(1433,268)" d="m0 0 4 5v17l-3 3-1-8z" fill="#343334"></path><path transform="translate(183,54)" d="m0 0h8l-3 1v16l2 4-4-2-3-6z" fill="#FCD4CD"></path><path transform="translate(233,326)" d="m0 0h3v5l1 1v-6l5 1v8h-10v-8z" fill="#3D3C3E"></path><path transform="translate(908,252)" d="m0 0 5 1-1 5-1 17h-1l-1-18-18-1v-2h17z" fill="#87706B"></path><path transform="translate(994,193)" d="m0 0h24l-2 4-23-1z" fill="#F45F61"></path><path transform="translate(444,73)" d="m0 0h41l10 3 2 2-9-1-10-2-34-1z" fill="#FCC4B4"></path><path transform="translate(1043,159)" d="m0 0h12l6 2v1h-31l-2-2z" fill="#FCC4B8"></path><path transform="translate(905,97)" d="m0 0 4 1 6 22 2 6v5l-2-2-7-21-2-8z" fill="#CE2C2E"></path><path transform="translate(472,94)" d="m0 0h8l7 2-4 1h-9l-1 8-1 1-1 17h-1v-28z" fill="#FDD1C2"></path><path transform="translate(104,341)" d="m0 0h8v9h-8z" fill="#857571"></path><path transform="translate(53,340)" d="m0 0h10v6l-15-1 1-4z" fill="#CCA69B"></path><path transform="translate(154,333)" d="m0 0h3l1 2v11h-6l1-11h-5v-1z" fill="#3D3C3E"></path><path transform="translate(1549,326)" d="m0 0h2v23l-6 1 2-2 1-21z" fill="#746360"></path><path transform="translate(1330,332)" d="m0 0h3v17l-2 1h-21v-1h20z" fill="#4C4747"></path><path transform="translate(281,247)" d="m0 0 5 1 5 5 1 5-2 3h-2l-3-5-2-2 1-2h-2l-2-4z" fill="#FEE6D6"></path><path transform="translate(75,173)" d="m0 0 2 2 2 13-5 2-1-1v-11z" fill="#FCEEEC"></path><path transform="translate(134,330)" d="m0 0 3 1 1 5v10h-5v-15z" fill="#2A2929"></path><path transform="translate(237,323)" d="m0 0 14 1-1 3-1 5h-2l-1-5h-3v8l-2-2 1-6-5-1v6l-2-1 1-5-2-1z" fill="#FCC5B6"></path><path transform="translate(1108,283)" d="m0 0 1 3-2 11 1 15 3 7-1 3-4-9-2-8v-12z" fill="#3D3C3E"></path><path transform="translate(1378,266)" d="m0 0h27l-1 2-18 1h-13l1-2z" fill="#3D3C3E"></path><path transform="translate(554,193)" d="m0 0h14l5 1v2l-2 1h-16l-3-2h2z" fill="#E34F50"></path><path transform="translate(713,113)" d="m0 0 6 1 2 8-8 1-2 1 1-10z" fill="#E54C4C"></path><path transform="translate(245,340)" d="m0 0h7v5l4 1-1 4h-11v-5h7l-1-4h-5z" fill="#FDD8CC"></path><path transform="translate(777,172)" d="m0 0h3v21h-4v-20z" fill="#E44445"></path><path transform="translate(44,153)" d="m0 0 4 1 1 6v8h-5l-1-2z" fill="#FDF5F3"></path><path transform="translate(434,47)" d="m0 0 4 1v23l-3-2z" fill="#BA1E24"></path><path transform="translate(455,198)" d="m0 0h27l-1 2-11 1h-15z" fill="#CA2527"></path><path transform="translate(1039,252)" d="m0 0h3v19h-3l-2-16z" fill="#EAB7A9"></path><path transform="translate(622,194)" d="m0 0h24l1 2-7 1h-18z" fill="#F5696C"></path><path transform="translate(547,174)" d="m0 0h1l1 9-1 7h-2l-1 2-2-3v-9h3v-5z" fill="#CA2527"></path><path transform="translate(948,140)" d="m0 0 4 1 2 4-2 7-4 2-1-13z" fill="#B02025"></path><path transform="translate(1137,119)" d="m0 0 4 1 2 6-1 11-2-1-1-7h-2z" fill="#E63435"></path><path transform="translate(1369,152)" d="m0 0h1v37h2v-5h1v10l-3 2-1-1z" fill="#C92426"></path><path transform="translate(573,145)" d="m0 0h13v1l36 1v1h-49z" fill="#F35F61"></path><path transform="translate(1474,122)" d="m0 0h1l1 50h-3z" fill="#F26163"></path><path transform="translate(89,207)" d="m0 0 4 1-2 1v12l1 7-14-1 2-2 9-2z" fill="#EA6364"></path><path transform="translate(687,118)" d="m0 0 1 3-7 22-2 2 1-10 3-11z" fill="#BA1D23"></path><path transform="translate(221,63)" d="m0 0h17v3l-2 1h-14z" fill="#FBCCC3"></path><path transform="translate(538,311)" d="m0 0h4l1 20h-4z" fill="#3D3C3E"></path><path transform="translate(256,166)" d="m0 0h10l-1 2-8 1-6 1-6 2v2l-5 2 1-5 8-4z" fill="#FEE6D4"></path><path transform="translate(32,44)" d="m0 0h1v18l-1 22h-1l-1-13v-15l1-2z" fill="#FEE5D5"></path><path transform="translate(1375,271)" d="m0 0h3v21h-3z" fill="#FDEBE5"></path><path transform="translate(1207,259)" d="m0 0 3 3v14h-4v-16z" fill="#F6C1B2"></path><path transform="translate(1007,145)" d="m0 0 1 4-7 20-2 1 1-9 6-15z" fill="#CE2C2C"></path><path transform="translate(1301,95)" d="m0 0 3 1 1 6 14-1-2-3h7v5h-20l-3-1z" fill="#FCCBBD"></path><path transform="translate(103,93)" d="m0 0h5l1 5-3 5-2 1-1-2h-4v-3h3z" fill="#FDF1EE"></path><path transform="translate(172,191)" d="m0 0 8 6 3 2-1 3h-2l-2 4h-4l2-7-4-6z" fill="#731D1C"></path><path transform="translate(253,168)" d="m0 0h12l1 2 3 2-24 1 2-2z" fill="#FCC3B3"></path><path transform="translate(444,131)" d="m0 0h1l1 17v22l-2 1-1-8 1-14z" fill="#CA2527"></path><path transform="translate(36,150)" d="m0 0 2 4v18l-3 1v-21z" fill="#242323"></path><path transform="translate(1179,121)" d="m0 0h1l1 11-1 7h-2l-2-7 1-10z" fill="#BE1F24"></path><path transform="translate(113,54)" d="m0 0 4 1-1 10-4 4-1-3 1-4v-3l-3-1z" fill="#FCDCD4"></path><path transform="translate(63,340)" d="m0 0h10v6l-2 1-8-1z" fill="#252424"></path><path transform="translate(835,266)" d="m0 0 15 1v4h-15z" fill="#3D3C3E"></path><path transform="translate(1450,194)" d="m0 0 18 1 8 1v1h-31v-2z" fill="#F56D6F"></path><path transform="translate(43,192)" d="m0 0 5 1 1 10-4 1-2-1z" fill="#FDECE7"></path><path transform="translate(770,173)" d="m0 0h6v18h-1l-1-13-2 2-1 14h-1z" fill="#CA2527"></path><path transform="translate(1013,122)" d="m0 0h2l-1 8-4 13-3 1 1-7 4-14z" fill="#C12126"></path><path transform="translate(296,339)" d="m0 0h7l2 1v6h-8l-1-1z" fill="#2E2D2D"></path><path transform="translate(1123,265)" d="m0 0 2 1-10 9-6 8-4 10h-1l1-8 6-10 10-9z" fill="#FCCEC0"></path><path transform="translate(1265,194)" d="m0 0h24v3h-22l-3-2z" fill="#F45F61"></path><path transform="translate(786,73)" d="m0 0h27l3 8 2 6-3-1-4-8-1-4h-24z" fill="#F8938E"></path><path transform="translate(657,75)" d="m0 0h3v20l-3 1z" fill="#CA2527"></path><path transform="translate(1009,346)" d="m0 0h9l9 2-2 2h-17z" fill="#373637"></path><path transform="translate(539,271)" d="m0 0 3 1v19h-3z" fill="#3D3C3E"></path><path transform="translate(83,340)" d="m0 0h9l1 1v5h-9l-1-1z" fill="#2F2E2F"></path><path transform="translate(1159,331)" d="m0 0h18l6 1-3 2h-16l-5-1z" fill="#FCCCBD"></path><path transform="translate(295,116)" d="m0 0 1 4-6 15h-1l1-14z" fill="#FDD9CC"></path><path transform="translate(184,107)" d="m0 0h3v7l-2 5h-2l-1-4-2 7h-1l1-8 3-6z" fill="#FDF0ED"></path><path transform="translate(1229,331)" d="m0 0 4 1h-2l-1 17h-3v-17z" fill="#464243"></path><path transform="translate(118,329)" d="m0 0 10 1v6h-7-3z" fill="#2E2D2E"></path><path transform="translate(578,292)" d="m0 0h3v19h-3z" fill="#BF998F"></path><path transform="translate(1225,73)" d="m0 0h1v24h-2l-2-5 1-9z" fill="#B81C22"></path><path transform="translate(210,335)" d="m0 0h7v7h-3l2 1v3h-3l-1-4-2-1z" fill="#FDF8F7"></path><path transform="translate(63,331)" d="m0 0h11v5h-11z" fill="#313031"></path><path transform="translate(1395,167)" d="m0 0 4 4 7 14-1 4-6-10-4-10z" fill="#CD2A2D"></path><path transform="translate(1373,148)" d="m0 0 1 3-1 25h-2v-18l-2-9z" fill="#A70F18"></path><path transform="translate(91,78)" d="m0 0h11l-1 5h-7l-5-1z" fill="#651614"></path><path transform="translate(149,72)" d="m0 0 5 3-2 4-4 2-1-1-3 1v-5z" fill="#FCE5E2"></path><path transform="translate(469,346)" d="m0 0 19 1v2l-10 1h-10z" fill="#313031"></path><path transform="translate(1290,98)" d="m0 0h7l3 1 2 4h-9v6h-1v-7h-2z" fill="#A11F22"></path><path transform="translate(162,69)" d="m0 0 3 3 1 4v10l-2 6h-1z" fill="#FCD5D2"></path><path transform="translate(1444,332)" d="m0 0h3v17l-3 1z" fill="#CDA99E"></path><path transform="translate(1457,194)" d="m0 0h27v2l2 1h-10l-19-2z" fill="#E85455"></path><path transform="translate(1212,168)" d="m0 0 2 3v22h-3z" fill="#AD131B"></path><path transform="translate(324,144)" d="m0 0h6l2 3-2 4h-6l-2-4z" fill="#FDFAFA"></path><path transform="translate(1028,161)" d="m0 0 17 1v1l-9 2-9 3-1-3z" fill="#B42327"></path><path transform="translate(304,142)" d="m0 0 4 1 3 4-1 5-3 1-3-3z" fill="#FDDCCF"></path><path transform="translate(1214,92)" d="m0 0v3l-3 2h-4l1 8h1v7h-3v-18l1-1z" fill="#FCC3B3"></path><path transform="translate(283,225)" d="m0 0 2 4v2l-4 1v2l-3 1-1-4h-2v-3l8-1z" fill="#FDDFD2"></path><path transform="translate(317,198)" d="m0 0h4l1 12-4 1-2-9z" fill="#FDDDD1"></path><path transform="translate(1443,74)" d="m0 0h1v19l6 1 2 1v3h-6l-3-2z" fill="#F5807F"></path><path transform="translate(1395,74)" d="m0 0h11l6 5v1h-5l-5-2-6-1z" fill="#FBB9AD"></path><path transform="translate(229,55)" d="m0 0h12v3l-7 1h-10z" fill="#FBCBC3"></path><path transform="translate(1505,214)" d="m0 0h2v12l-4-1-1-2v-8z" fill="#FEE0D4"></path><path transform="translate(52,159)" d="m0 0 5 1 4-1 1 1v8l-3 3-1-7-5-3-1 2z" fill="#EB7271"></path><path transform="translate(476,319)" d="m0 0h1v19l3 1-3 1-1 6h-1v-25z" fill="#3D3C3E"></path><path transform="translate(510,252)" d="m0 0h5l-2 4-1 3-1 12h-2v-18z" fill="#C19D93"></path><path transform="translate(758,252)" d="m0 0 7 1v4l-23-1v-1l16-1z" fill="#6F5F5D"></path><path transform="translate(512,180)" d="m0 0 2 1-10 8-6 2-4-2 10-4z" fill="#FCC3B4"></path><path transform="translate(993,97)" d="m0 0 4 1h-2l-4 17-4 1 3-10z" fill="#CD2D2F"></path><path transform="translate(100,87)" d="m0 0 2 1 3 3 1-4 1 4 4 1-2 4-1-2-9-1-1-4z" fill="#FBBAB1"></path><path transform="translate(1377,317)" d="m0 0h1v33l-4-1 1-1z" fill="#FCC6B6"></path><path transform="translate(219,333)" d="m0 0 2 1 1 5-1 7h-4v-11z" fill="#3A393B"></path><path transform="translate(700,301)" d="m0 0 3 4 5 11 2 9-3-4-6-13z" fill="#3D3C3E"></path><path transform="translate(354,246)" d="m0 0h1v7l-2 3-3 13-1 2h-2l-1 2 1-6 3-6 2-10z" fill="#FEE7D6"></path><path transform="translate(474,194)" d="m0 0h13l1 2-4 1h-15l-1-2z" fill="#F46567"></path><path transform="translate(703,73)" d="m0 0h27l-3 2-21-1-1 5-4 2z" fill="#FCC9BB"></path><path transform="translate(29,288)" d="m0 0 2 1v18l2 9-4-2z" fill="#FFECD8"></path><path transform="translate(290,173)" d="m0 0 5 2 1 4-2 1h-6l-1-6z" fill="#FEE0D4"></path><path transform="translate(734,95)" d="m0 0 4 3 2 7v9h-1v-5h-2l-3-9z" fill="#F99995"></path><path transform="translate(647,98)" d="m0 0h4l-1 13-3 2z" fill="#AB121B"></path><path transform="translate(107,67)" d="m0 0h2l1 5-4 2v7l-2-1-1-8 1-4z" fill="#FABBB3"></path><path transform="translate(143,59)" d="m0 0h8l3 1v2l-4 1v2l2 1h-3v-3l-4 1v-2h-3z" fill="#FDEDE9"></path><path transform="translate(50,199)" d="m0 0 3 2 2 6h-2l-2 7-3 4v-6h1z" fill="#F89E9B"></path><path transform="translate(1492,209)" d="m0 0h1v17h-3l-1-8z" fill="#C62326"></path><path transform="translate(1139,166)" d="m0 0 2 3v14h-3v-15z" fill="#E14D4D"></path><path transform="translate(198,118)" d="m0 0h1v11h5l1 4-3 1-6-3v-7h1z" fill="#D6494A"></path><path transform="translate(505,115)" d="m0 0 2 4 1 4v17h-1l-3-19z" fill="#CC2A2C"></path><path transform="translate(1017,108)" d="m0 0h2l-1 9-2 7-1-2h-2l3-13z" fill="#CB282A"></path><path transform="translate(326,341)" d="m0 0h1l1 5h2l1 3-1 1h-5v-3h-3l1 3h-2v-4h-2l1-4v3l5-1z" fill="#AB928C"></path><path transform="translate(464,311)" d="m0 0h1v36h2v3h-3z" fill="#F1D3C7"></path><path transform="translate(1389,305)" d="m0 0h10l-1 2-19 2-1-3z" fill="#3D3C3E"></path><path transform="translate(879,266)" d="m0 0h10l-1 4-9 1z" fill="#3D3C3E"></path><path transform="translate(1543,215)" d="m0 0h1v6l3-1v6h-5v-2h-6l1-2 4-2z" fill="#CA2527"></path><path transform="translate(331,140)" d="m0 0h4l1 6-5 3-1-4-3-2z" fill="#FEE9D7"></path><path transform="translate(1507,40)" d="m0 0h21l-4 2-17 1z" fill="#F67779"></path><path transform="translate(1249,295)" d="m0 0 1 3-6 16-3 6-1-3 8-20z" fill="#3D3C3E"></path><path transform="translate(158,66)" d="m0 0 4 1 1 7-2 6-1-4-1 2-3-1 2-3z" fill="#DA5051"></path><path transform="translate(375,39)" d="m0 0h5l-1 4-1 11h-3z" fill="#FCC4B4"></path><path transform="translate(1440,347)" d="m0 0h4v3h-18l-3-2z" fill="#2E2D2E"></path><path transform="translate(65,339)" d="m0 0h13v7h-5v-6h-8z" fill="#FCCDBE"></path><path transform="translate(76,227)" d="m0 0h14v1l-9 1-2 1 6 1-2 3v-2h-10v-3z" fill="#FCCCBE"></path><path transform="translate(43,206)" d="m0 0h1v14l2 2h-6v-8l2-2z" fill="#F48783"></path><path transform="translate(170,210)" d="m0 0h2l-2 5-5 7-3-3-1-5 4 1z" fill="#7B1F1E"></path><path transform="translate(231,160)" d="m0 0 5 1 3 3v2l-4 2h-3z" fill="#741C1A"></path><path transform="translate(885,75)" d="m0 0h2v10l-1 8 3 1-1 2-8-1 4-2z" fill="#FBB8B1"></path><path transform="translate(349,344)" d="m0 0h2v4l4-3v5h-11l1-3-2-1h5z" fill="#D8B4AA"></path><path transform="translate(102,331)" d="m0 0h10v4h-10z" fill="#2C2B2C"></path><path transform="translate(135,209)" d="m0 0 4 1v7l-2 1-3-2-2 1-1-4z" fill="#FEDECE"></path><path transform="translate(530,146)" d="m0 0h1l1 7-5 11h-2l4-17z" fill="#CE2E31"></path><path transform="translate(277,82)" d="m0 0 5 5 3 4-1 2-4-1-4-6z" fill="#FEE3D0"></path><path transform="translate(35,197)" d="m0 0h3v13l-3 1z" fill="#242323"></path><path transform="translate(70,193)" d="m0 0h8l3 2-1 1-11 1-5 2v-3l6-1z" fill="#FDDFD4"></path><path transform="translate(322,144)" d="m0 0 2 1-1 3 1 2 5 1-4 2-7-1v-4l3-1z" fill="#FEE7D6"></path><path transform="translate(253,122)" d="m0 0 4 3-1 4v-3l-6 3-3 2-2-2 5-5z" fill="#D43E40"></path><path transform="translate(1335,77)" d="m0 0h1l1 12 1 3h2v2l3 1-4 1-4-1z" fill="#FCC6B7"></path><path transform="translate(123,225)" d="m0 0m-1 1v3l-3 2h-12l1-2 12-2z" fill="#FCF4F4"></path><path transform="translate(1171,170)" d="m0 0h2l5 8 1 5-3 1-1-7h-2l-3-4z" fill="#FBC2B3"></path><path transform="translate(736,91)" d="m0 0 3 3 3 10 1 8-2-1-5-18z" fill="#CC2729"></path><path transform="translate(99,72)" d="m0 0h4l1 5-3-3-3 3h-7l-4-2v-1h8z" fill="#EC7372"></path><path transform="translate(72,237)" d="m0 0 8 1-1 2-11 2-4-2v-2l8 1z" fill="#F5A19C"></path><path transform="translate(452,150)" d="m0 0h2v22l-2-1v-9l-1-5z" fill="#FCC3B3"></path><path transform="translate(195,93)" d="m0 0 1 2-3 12-4 1-2 3v-4l-2-1 5-2 3-6z" fill="#E86163"></path><path transform="translate(1251,99)" d="m0 0h12l-2 4-9-1z" fill="#A70F18"></path><path transform="translate(474,96)" d="m0 0h9l5 1-4 2 3 2h-11l2-3z" fill="#D83C3E"></path><path transform="translate(1508,44)" d="m0 0h6l1 3-5 1-1 18h-1z" fill="#C52226"></path><path transform="translate(98,213)" d="m0 0 2 1 1 4v10l-3-1z" fill="#EF6466"></path><path transform="translate(102,148)" d="m0 0 1 2 7 1-3 4 1 2-6-1 1-3-5-2z" fill="#FCCABD"></path><path transform="translate(445,94)" d="m0 0h3v2h2v28h-1v-26l-4-2z" fill="#F36667"></path><path transform="translate(296,98)" d="m0 0h4l1 6-3 2h-3v-6z" fill="#FEE6D3"></path><path transform="translate(1064,90)" d="m0 0h2l2 7v9l-2-1-2-8z" fill="#CD2628"></path><path transform="translate(107,78)" d="m0 0 4 2 1 5-2 1-1-2-1 2h-3l2-7zm-3 8h1v5l-2-1z" fill="#FCDFD6"></path><path transform="translate(975,74)" d="m0 0h2v7l-2 6-3 1 2-10z" fill="#FCCCBD"></path><path transform="translate(1192,254)" d="m0 0 10 2 5 3-2 3v-2l-11-3-4-2z" fill="#3D3C3E"></path><path transform="translate(292,241)" d="m0 0 4 1-1 3-2 1h-7l-1-3z" fill="#FEEAD7"></path><path transform="translate(93,232)" d="m0 0 19 1-2 2h-15z" fill="#F58E8A"></path><path transform="translate(113,225)" d="m0 0 8 1-1 2-17 2 4-3z" fill="#FABCB6"></path><path transform="translate(101,231)" d="m0 0h16l-3 3-17-1z" fill="#D33C3D"></path><path transform="translate(810,118)" d="m0 0 4 2 2 7-1 17h-1l-1-19z" fill="#CD2C2E"></path><path transform="translate(258,276)" d="m0 0h6l2 1-1 7-7-2 2-1v-2l2-1z" fill="#FCC3B3"></path><path transform="translate(40,153)" d="m0 0 4 1v12l-1-4h-3z" fill="#EC7274"></path><path transform="translate(713,122)" d="m0 0h8l1 7-2-3-7-2v3l-3 1 1-4z" fill="#CE2D2F"></path><path transform="translate(1397,99)" d="m0 0 4 2 1 2v9l-2 3-2-12z" fill="#FBBDAF"></path><path transform="translate(1369,98)" d="m0 0h27v1l-23 1-3 2z" fill="#B72528"></path><path transform="translate(100,83)" d="m0 0 5 1-1 5-3 1-1-2-2 4-2-1 2-6h2z" fill="#FCF5F4"></path><path transform="translate(114,336)" d="m0 0 4 1v8h-4z" fill="#5E5352"></path><path transform="translate(315,332)" d="m0 0 1 3h2v2h-17v-1l10-1 1-2v2h3z" fill="#FDE2D9"></path><path transform="translate(78,331)" d="m0 0 5 1 1 3 4 2h-9l-1-1z" fill="#A98B82"></path><path transform="translate(1294,261)" d="m0 0 3 1 5 12-1 4-7-15z" fill="#F6C0B1"></path><path transform="translate(325,222)" d="m0 0h7l6 2-3 2-11-1z" fill="#FEE1D4"></path><path transform="translate(90,208)" d="m0 0 3 2v17l-3-6z" fill="#FEE0D4"></path><path transform="translate(831,151)" d="m0 0 5 5 6 11-4-1-7-13z" fill="#FBBFB3"></path><path transform="translate(1207,97)" d="m0 0 4 1-1 13-3-3z" fill="#F77F82"></path><path transform="translate(699,80)" d="m0 0h1l-1 9-3 9-2-4z" fill="#D42F31"></path><path transform="translate(263,339)" d="m0 0h14l1 3-4 1-1 2h-2v-4l-8-1z" fill="#F6BEAF"></path><path transform="translate(176,334)" d="m0 0 2 1 1 11 1 2h-5l-1-2h2z" fill="#FDFBFB"></path><path transform="translate(281,331)" d="m0 0h5l2 3h-2v3h-5z" fill="#2D2C2C"></path><path transform="translate(323,298)" d="m0 0m-1 1v3l-13 9-2-1 4-4 6-3z" fill="#FCC5B6"></path><path transform="translate(86,152)" d="m0 0h20l-4 4-5-1v-2h-11z" fill="#DF4B4D"></path><path transform="translate(1342,119)" d="m0 0h1v18l-2-2-1-10z" fill="#CA2527"></path><path transform="translate(1477,93)" d="m0 0h5l-2 4-7 2v-5z" fill="#FAA9A1"></path><path transform="translate(87,64)" d="m0 0 6 1 1 3-7-1-1 2-4-2v-2z" fill="#EC7E7C"></path><path transform="translate(63,346)" d="m0 0h10v3l-9 1z" fill="#D8B5AB"></path><path transform="translate(340,339)" d="m0 0 6 2 1 4h-7z" fill="#242323"></path><path transform="translate(1317,314)" d="m0 0 2 2 6 15-3-1-5-12z" fill="#3D3C3E"></path><path transform="translate(1066,180)" d="m0 0 2 1 4 7v4h-4z" fill="#FBC0B2"></path><path transform="translate(106,163)" d="m0 0 5 1v3h-4v2l-5 1 2-3v-3z" fill="#F49B98"></path><path transform="translate(78,140)" d="m0 0 2 1v2l3 1 2 4 3-1 1 4-6-1-4-5z" fill="#FAB2AA"></path><path transform="translate(948,140)" d="m0 0 4 1 2 4-6 2-1-1v-5z" fill="#BD2026"></path><path transform="translate(714,113)" d="m0 0 5 1 1 5-1 2-4-1z" fill="#F36163"></path><path transform="translate(481,98)" d="m0 0h9l6 4-4 1-11-4z" fill="#BC2126"></path><path transform="translate(1251,94)" d="m0 0h5l-1 2h5l4-1v3h-14z" fill="#F46062"></path><path transform="translate(123,337)" d="m0 0 1 3 4 1-1 5h-4z" fill="#2F2E2F"></path><path transform="translate(932,173)" d="m0 0 2 3 5 12-1 4-1-3-2-1-3-11z" fill="#FCC8B9"></path><path transform="translate(137,167)" d="m0 0 4 1 1 3-2 2-3-1-1-2-4 3 2-4z" fill="#FCE5E1"></path><path transform="translate(1387,148)" d="m0 0 2 2 3 6-1 4-5-7-2-1v-2z" fill="#CB2C2F"></path><path transform="translate(926,73)" d="m0 0 2 4v13l-2-4-1-7z" fill="#F28179"></path><path transform="translate(156,69)" d="m0 0h3v5l-2 2-4-1-3-3h3 2z" fill="#F8B0A8"></path><path transform="translate(245,346)" d="m0 0 9 1v3h-10z" fill="#5C5352"></path><path transform="translate(178,336)" d="m0 0h3v10h-3z" fill="#3C3B3D"></path><path transform="translate(74,183)" d="m0 0 5 2-1 4-4 1-1-4z" fill="#FDDFD2"></path><path transform="translate(39,177)" d="m0 0h7l1 5-8-1z" fill="#FBB5AB"></path><path transform="translate(1013,122)" d="m0 0h2l-1 8-2 4h-1v-7z" fill="#BE1F24"></path><path transform="translate(689,108)" d="m0 0h1v8l-2 4-1-1-3 4 1-5z" fill="#C52428"></path><path transform="translate(128,86)" d="m0 0h2l1 2v8l-3 1 1-6h-2z" fill="#FCDBD3"></path><path transform="translate(96,59)" d="m0 0 3 2 4-1v4h-10l2-4z" fill="#FDF4F1"></path><path transform="translate(384,45)" d="m0 0h9l-1 2h-8v2l-4 1v-4z" fill="#BE1F24"></path><path transform="translate(65,340)" d="m0 0h8v6l-2 1-2-1v-5z" fill="#383739"></path><path transform="translate(173,336)" d="m0 0h3v10l-3-1z" fill="#3D3C3E"></path><path transform="translate(74,335)" d="m0 0 5 1-1 2-19-1v-1z" fill="#F5BFB0"></path><path transform="translate(246,277)" d="m0 0h8v4l-8-1z" fill="#FEE8D6"></path><path transform="translate(1207,265)" d="m0 0 2 1v10h-3v-8z" fill="#FDDCCF"></path><path transform="translate(48,196)" d="m0 0 3 3-1 14h-1v-8l-5 1-1-3h5z" fill="#ED5455"></path><path transform="translate(119,196)" d="m0 0h7l2 2-2 2h-7l-4-2z" fill="#FCCABE"></path><path transform="translate(1372,184)" d="m0 0h1v10l-3 2-1-1v-6h3z" fill="#CA2527"></path><path transform="translate(733,163)" d="m0 0 4 4 2 7v5l-2-4v-3h-2z" fill="#FBBCAE"></path><path transform="translate(1333,75)" d="m0 0h1l1 14-1 5-2-4-1-3z" fill="#C32225"></path><path transform="translate(1355,68)" d="m0 0h12v2l-11 1-3-2z" fill="#E14D4D"></path><path transform="translate(155,64)" d="m0 0 3 3-1 3-2 3h-2v-8z" fill="#FCF9F8"></path><path transform="translate(311,340)" d="m0 0 5 1 1 4-6 1z" fill="#3D3C3E"></path><path transform="translate(155,298)" d="m0 0 2 3 3 8v2l-3 1-2-10z" fill="#A03131"></path><path transform="translate(89,177)" d="m0 0 4 2-1 7-4-3z" fill="#FCEAE7"></path><path transform="translate(696,169)" d="m0 0h3l1 2-5 10-1-4z" fill="#CD2C2E"></path><path transform="translate(678,146)" d="m0 0h1l-1 11h-3l1-7z" fill="#CE2A2C"></path><path transform="translate(855,140)" d="m0 0 3 1v9l-5-5z" fill="#F27751"></path><path transform="translate(113,54)" d="m0 0 4 1v6h-3l-4-5z" fill="#F9B6B0"></path><path transform="translate(264,345)" d="m0 0h6l1 5h-8z" fill="#FCD0C3"></path><path transform="translate(43,326)" d="m0 0h5v4h-7l-1-3z" fill="#FDD7CA"></path><path transform="translate(245,279)" d="m0 0 5 2v4l2 1-6-1-1-3z" fill="#FCC3B3"></path><path transform="translate(108,197)" d="m0 0h12l-1 3h-7l-5-1z" fill="#E95E5F"></path><path transform="translate(1166,163)" d="m0 0h2l3 3v3l2 1-4 1v-2h-2l-2-5z" fill="#FAA59E"></path><path transform="translate(1418,130)" d="m0 0v3l-7 8h-3l2-4z" fill="#CA2F32"></path><path transform="translate(928,83)" d="m0 0h1l2 12v5l-3-4z" fill="#FBBFB1"></path><path transform="translate(247,321)" d="m0 0 4 1v2h-13l1-2z" fill="#3D3C3E"></path><path transform="translate(545,166)" d="m0 0h1l1 8-1 6h-2v-10z" fill="#BA1E24"></path><path transform="translate(1173,131)" d="m0 0 4 1 2 8h2v3l-4-2-4-8z" fill="#EB5354"></path><path transform="translate(1301,95)" d="m0 0 3 1 2 7-5-1z" fill="#FBC1B2"></path><path transform="translate(699,86)" d="m0 0 2 4-3 8h-2l2-9z" fill="#FEDECC"></path></svg>